<svg xmlns="http://www.w3.org/2000/svg" xmlns:xlink="http://www.w3.org/1999/xlink" width="28" height="28" viewBox="0 0 28 28">
  <defs>
    <linearGradient id="linear-gradient" x1="-40.092" y1="20.174" x2="-40.048" y2="20.174" gradientUnits="objectBoundingBox">
      <stop offset="0" stop-color="#ffe200"/>
      <stop offset="1" stop-color="#ffce00"/>
    </linearGradient>
    <linearGradient id="linear-gradient-2" x1="-191.492" y1="112.805" x2="-191.214" y2="112.805" gradientUnits="objectBoundingBox">
      <stop offset="0" stop-color="#00dcff"/>
      <stop offset="1" stop-color="#00c2ff"/>
    </linearGradient>
    <linearGradient id="linear-gradient-3" x1="-39.892" y1="21.357" x2="-39.892" y2="21.399" gradientUnits="objectBoundingBox">
      <stop offset="0" stop-color="#ffb100"/>
      <stop offset="1" stop-color="#fde668"/>
    </linearGradient>
    <clipPath id="clip-Artboard_2">
      <rect width="28" height="28"/>
    </clipPath>
  </defs>
  <g id="Artboard_2" data-name="Artboard – 2" clip-path="url(#clip-Artboard_2)">
    <g id="Group_731" transform="translate(-1014.1 -815.85)">
      <path id="Path_632" d="M1031.4,816.4v.9a3.033,3.033,0,0,1-3.2,2.9,2.968,2.968,0,0,1-2.9-2.9v-.9h-8.2v24.8h.9c.2,0,.3.1.6.5a2.313,2.313,0,0,0,3.2.8,3.044,3.044,0,0,0,.8-.8c.3-.4.4-.5.6-.5s.3.1.6.5a2.313,2.313,0,0,0,3.2.8,3.044,3.044,0,0,0,.8-.8c.3-.4.4-.5.6-.5s.3.1.6.5a2.313,2.313,0,0,0,3.2.8,3.044,3.044,0,0,0,.8-.8c.3-.4.4-.5.6-.5s.3.1.6.5a2.313,2.313,0,0,0,3.2.8,3.044,3.044,0,0,0,.8-.8c.3-.4.4-.5.6-.5h.9V816.4Zm2,20h-10.2a1,1,0,0,1,0-2h10.2a1,1,0,0,1,0,2Zm0-4.7h-10.2a1,1,0,0,1,0-2h10.2a1,1,0,0,1,0,2Zm0-4.8h-10.2a1,1,0,0,1,0-2h10.2a1,1,0,0,1,0,2Z" fill="url(#linear-gradient)"/>
      <circle id="Ellipse_50" cx="1.8" cy="1.8" r="1.8" transform="translate(1026.5 815.3)" fill="url(#linear-gradient-2)"/>
      <g id="Group_730">
        <path id="Path_633" d="M1028.3,818.9a1.8,1.8,0,1,0-1.8-1.8h0a1.793,1.793,0,0,0,1.8,1.8Z" fill="#feb12a"/>
        <path id="Path_634" d="M1031.4,816.4v.9a3.033,3.033,0,0,1-3.2,2.9,2.968,2.968,0,0,1-2.9-2.9v-.9h-8.2v3.3l5.5,5.5a.908.908,0,0,1,.7-.3h10.2a1,1,0,0,1,0,2h-9.2l2.8,2.8h6.4a1,1,0,0,1,0,2h-4.4l2.8,2.8h1.7a.945.945,0,0,1,1,1,.961.961,0,0,1-.7.9l4.9,4.9h1V816.5h-8.4Z" fill="url(#linear-gradient-3)"/>
      </g>
    </g>
  </g>
</svg>
