<svg xmlns="http://www.w3.org/2000/svg" xmlns:xlink="http://www.w3.org/1999/xlink" width="28" height="28" viewBox="0 0 28 28">
  <defs>
    <clipPath id="clip-Artboard_1">
      <rect width="28" height="28"/>
    </clipPath>
  </defs>
  <g id="Artboard_1" data-name="Artboard – 1" clip-path="url(#clip-Artboard_1)">
    <g id="Group_81" transform="translate(-1014.1 -683.148)">
      <path id="Path_530" d="M1022.2,693.2a.945.945,0,0,0,1,1h10.2a1,1,0,0,0,0-2h-10.2A1,1,0,0,0,1022.2,693.2Z" fill="#fff"/>
      <path id="Path_531" d="M1033.4,697h-10.2a1,1,0,0,0,0,2h10.2a1,1,0,0,0,0-2Z" fill="#fff"/>
      <path id="Path_532" d="M1033.4,701.7h-10.2a1,1,0,0,0,0,2h10.2a1,1,0,0,0,0-2Z" fill="#fff"/>
      <path id="Path_533" d="M1031.4,683.7v.9a3.033,3.033,0,0,1-3.2,2.9,2.968,2.968,0,0,1-2.9-2.9v-.9h-8.2v24.8h.9c.2,0,.3.1.6.5a2.313,2.313,0,0,0,3.2.8,3.044,3.044,0,0,0,.8-.8c.3-.4.4-.5.6-.5s.3.1.6.5a2.313,2.313,0,0,0,3.2.8,3.044,3.044,0,0,0,.8-.8c.3-.4.4-.5.6-.5s.3.1.6.5a2.313,2.313,0,0,0,3.2.8,3.044,3.044,0,0,0,.8-.8c.3-.4.4-.5.6-.5s.3.1.6.5a2.313,2.313,0,0,0,3.2.8,3.044,3.044,0,0,0,.8-.8c.3-.4.4-.5.6-.5h.9V683.7Zm6.4,23.2a3.125,3.125,0,0,0-1.1.9c-.3.4-.4.5-.6.5s-.3-.1-.6-.5a2.313,2.313,0,0,0-3.2-.8,3.044,3.044,0,0,0-.8.8c-.3.4-.4.5-.6.5s-.3-.1-.6-.5a2.313,2.313,0,0,0-3.2-.8,3.044,3.044,0,0,0-.8.8c-.3.4-.4.5-.6.5s-.3-.1-.6-.5a2.313,2.313,0,0,0-3.2-.8,3.044,3.044,0,0,0-.8.8c-.3.4-.4.5-.6.5s-.3-.1-.6-.5a3.126,3.126,0,0,0-1.1-.9V685.5h4.7a4.889,4.889,0,0,0,5.8,3.7,4.835,4.835,0,0,0,3.7-3.7h4.7Z" fill="#fff"/>
      <path id="Path_534" d="M1028.3,686.2a1.8,1.8,0,1,0-1.8-1.8,1.793,1.793,0,0,0,1.8,1.8Z" fill="#fff"/>
    </g>
  </g>
</svg>
