<svg xmlns="http://www.w3.org/2000/svg" xmlns:xlink="http://www.w3.org/1999/xlink" width="28" height="28" viewBox="0 0 28 28">
  <defs>
    <clipPath id="clip-Artboard_3">
      <rect width="28" height="28"/>
    </clipPath>
  </defs>
  <g id="Artboard_3" data-name="Artboard – 3" clip-path="url(#clip-Artboard_3)">
    <g id="Group_79" transform="translate(-1070.5 -682.5)">
      <path id="Path_525" d="M1070.6,693.2v12.5a2.9,2.9,0,0,0,2.9,2.9h22a2.9,2.9,0,0,0,2.9-2.9h0V693.2Zm26,12.5a1.11,1.11,0,0,1-1.1,1.1h-22a1.11,1.11,0,0,1-1.1-1.1V695h24.2Z" fill="#fff"/>
      <path id="Path_526" d="M1084.5,700.1v4.7h2v-7.2h-1.6a3.125,3.125,0,0,1-.9,1.1,4.812,4.812,0,0,1-1.6.8v1.6c.4-.1.8-.3,1.1-.4A4.366,4.366,0,0,0,1084.5,700.1Z" fill="#fff"/>
      <path id="Path_527" d="M1098.4,688a2.582,2.582,0,0,0-2.6-2.6h-4.3v-1.3a1.605,1.605,0,0,0-1.7-1.6,1.579,1.579,0,0,0-1.6,1.6v1.3H1080v-1.3a1.605,1.605,0,0,0-1.7-1.6,1.579,1.579,0,0,0-1.6,1.6v1.3h-3.6a2.646,2.646,0,0,0-2.6,2.6v3.8h27.8Zm-1.8,2h-24.2v-2a.789.789,0,0,1,.8-.8h3.7a1.621,1.621,0,0,0,1.6,1.2h0a1.712,1.712,0,0,0,1.6-1.2h8.3a1.621,1.621,0,0,0,1.6,1.2h0a1.712,1.712,0,0,0,1.6-1.2h4.4a.789.789,0,0,1,.8.8Z" fill="#fff"/>
    </g>
  </g>
</svg>
