<svg xmlns="http://www.w3.org/2000/svg" xmlns:xlink="http://www.w3.org/1999/xlink" width="28" height="28" viewBox="0 0 28 28">
  <defs>
    <linearGradient id="linear-gradient" x1="-32.77" y1="33.03" x2="-32.734" y2="33.03" gradientUnits="objectBoundingBox">
      <stop offset="0" stop-color="#ffe200"/>
      <stop offset="1" stop-color="#ffce00"/>
    </linearGradient>
    <linearGradient id="linear-gradient-2" x1="-201.122" y1="78.795" x2="-200.819" y2="78.795" xlink:href="#linear-gradient"/>
    <linearGradient id="linear-gradient-3" x1="-32.649" y1="73.066" x2="-32.613" y2="73.066" xlink:href="#linear-gradient"/>
    <linearGradient id="linear-gradient-4" x1="-204.106" y1="78.795" x2="-203.804" y2="78.795" xlink:href="#linear-gradient"/>
    <clipPath id="clip-Artboard_4">
      <rect width="28" height="28"/>
    </clipPath>
  </defs>
  <g id="Artboard_4" data-name="Artboard – 4" clip-path="url(#clip-Artboard_4)">
    <g id="Group_728" transform="translate(-1070.4 -811.8)">
      <g id="Group_726">
        <path id="Path_622" d="M1070.6,822.5V835a2.9,2.9,0,0,0,2.9,2.9h22a2.9,2.9,0,0,0,2.9-2.9h0V822.5Zm15.9,11.6h-2v-4.7l-.9.6a4.876,4.876,0,0,1-1.1.4v-1.6a4.813,4.813,0,0,0,1.6-.8,3.127,3.127,0,0,0,.9-1.1h1.6Z" fill="url(#linear-gradient)"/>
        <path id="Path_623" d="M1078.4,817.7h0a1.579,1.579,0,0,0,1.6-1.6v-2.7a1.605,1.605,0,0,0-1.7-1.6,1.579,1.579,0,0,0-1.6,1.6v2.7a1.735,1.735,0,0,0,1.7,1.6Z" fill="url(#linear-gradient-2)"/>
        <path id="Path_624" d="M1098.4,817.3a2.582,2.582,0,0,0-2.6-2.6H1093v1.4a3.15,3.15,0,0,1-6.3,0v-1.4h-5.2v1.4a3.15,3.15,0,0,1-6.3,0v-1.4h-2.1a2.646,2.646,0,0,0-2.6,2.6v3.8h27.8Z" fill="url(#linear-gradient-3)"/>
        <path id="Path_625" d="M1089.9,817.7h0a1.735,1.735,0,0,0,1.7-1.6v-2.7a1.605,1.605,0,0,0-1.7-1.6,1.579,1.579,0,0,0-1.6,1.6v2.7a1.522,1.522,0,0,0,1.6,1.6Z" fill="url(#linear-gradient-4)"/>
      </g>
      <g id="Group_727">
        <path id="Path_626" d="M1084.9,826.9h1.6v2.2l8.9,8.9h.1a2.9,2.9,0,0,0,2.9-2.9h0V822.6H1080l4.7,4.7C1084.8,827.1,1084.9,827,1084.9,826.9Z" fill="#feb12a"/>
        <path id="Path_627" d="M1078.4,817.7h0a1.579,1.579,0,0,0,1.6-1.6v-2.7a1.605,1.605,0,0,0-1.7-1.6,1.579,1.579,0,0,0-1.6,1.6v2.7a1.735,1.735,0,0,0,1.7,1.6Z" fill="#feb12a"/>
        <path id="Path_628" d="M1098.4,817.3a2.582,2.582,0,0,0-2.6-2.6H1093v1.4a3.15,3.15,0,0,1-6.3,0v-1.4h-5.2v1.4a3.15,3.15,0,0,1-6.3,0v-1.4h-2.1c-.3,0-.5.1-.8.1l6.2,6.2h19.8Z" fill="#feb12a"/>
        <path id="Path_629" d="M1089.9,817.7h0a1.735,1.735,0,0,0,1.7-1.6v-2.7a1.605,1.605,0,0,0-1.7-1.6,1.579,1.579,0,0,0-1.6,1.6v2.7a1.522,1.522,0,0,0,1.6,1.6Z" fill="#feb12a"/>
      </g>
    </g>
  </g>
</svg>
