<svg xmlns="http://www.w3.org/2000/svg" xmlns:xlink="http://www.w3.org/1999/xlink" width="28" height="28" viewBox="0 0 28 28">
  <defs>
    <linearGradient id="linear-gradient" x1="-32.775" y1="20.529" x2="-32.739" y2="20.529" gradientUnits="objectBoundingBox">
      <stop offset="0" stop-color="#ffe200"/>
      <stop offset="1" stop-color="#ffce00"/>
    </linearGradient>
    <clipPath id="clip-Artboard_6">
      <rect width="28" height="28"/>
    </clipPath>
  </defs>
  <g id="Artboard_6" data-name="Artboard – 6" clip-path="url(#clip-Artboard_6)">
    <g id="Group_675" transform="translate(-931.75 -819.022)">
      <path id="Path_582" d="M959.4,831.9c0-.1-.1-.2-.1-.3a2.589,2.589,0,0,0-.7-1.1L947,820.6a1.875,1.875,0,0,0-2.6-.1h0l-11.8,10a2.239,2.239,0,0,0-.8,1.5,2.168,2.168,0,0,0,.5,1.4,1.731,1.731,0,0,0,1.6.7h1l.4,6.8a5.251,5.251,0,0,0,5.4,5.1h4v-2.8H947V846h4a5.318,5.318,0,0,0,5.4-5.1l.4-6.8h.8a1.923,1.923,0,0,0,2-1.9h0V832Zm-7.1,5.5a1.382,1.382,0,0,1-1.6.4,9.019,9.019,0,0,1-10.4,0,1.5,1.5,0,0,1-1.8-.8,1.439,1.439,0,0,1,.4-1.5,1.374,1.374,0,0,1,1.8-.1l.2.2a1.277,1.277,0,0,1,.2,1.2,7.683,7.683,0,0,0,8.7,0,1.148,1.148,0,0,1,.4-1.2,1.363,1.363,0,0,1,1.8-.2c.1,0,.1.1.2.2a1.135,1.135,0,0,1,.4,1.6C952.4,837.3,952.4,837.4,952.3,837.4Z" fill="url(#linear-gradient)"/>
      <path id="Path_583" d="M959.4,831.9c0-.1-.1-.2-.1-.3a2.589,2.589,0,0,0-.7-1.1L947,820.6a1.875,1.875,0,0,0-2.6-.1h0l-7.8,6.6,10.7,10.7a8.486,8.486,0,0,0,2.6-1.1,1.148,1.148,0,0,1,.4-1.2,1.363,1.363,0,0,1,1.8-.2c.1,0,.1.1.2.2a1.135,1.135,0,0,1,.4,1.6c-.1.1-.1.2-.2.2a1.382,1.382,0,0,1-1.6.4,8.228,8.228,0,0,1-2.5,1.2l6,6a5.025,5.025,0,0,0,2.1-4l.4-6.8h.8a1.923,1.923,0,0,0,2-1.9h0V832Z" fill="#feb12a"/>
    </g>
  </g>
</svg>
