<svg xmlns="http://www.w3.org/2000/svg" xmlns:xlink="http://www.w3.org/1999/xlink" width="28" height="28" viewBox="0 0 28 28">
  <defs>
    <clipPath id="clip-Artboard_5">
      <rect width="28" height="28"/>
    </clipPath>
  </defs>
  <g id="Artboard_5" data-name="Artboard – 5" clip-path="url(#clip-Artboard_5)">
    <g id="Group_729" transform="translate(-902.237 -697.475)">
      <path id="Path_630" d="M921.6,724.5h-4v-2.8h-2.3v2.8h-4a5.318,5.318,0,0,1-5.4-5.1l-.4-6.8h-1a2.36,2.36,0,0,1-1.6-.7,1.553,1.553,0,0,1-.5-1.4,1.9,1.9,0,0,1,.8-1.5L915,699a1.872,1.872,0,0,1,2.6,0h0l11.6,9.9a2.1,2.1,0,0,1,.7,1.1c0,.1.1.2.1.3l.1.2v.2a1.923,1.923,0,0,1-2,1.9h-.8l-.4,6.8A5.1,5.1,0,0,1,921.6,724.5Zm-2.2-1.8h2.2a3.614,3.614,0,0,0,3.6-3.4l.5-8.5h2.7c0-.1-.1-.2-.2-.3h-.1l-11.7-10c-.1-.1-.2-.1-.2,0l-11.9,10c-.1,0-.1.1-.1.2s0,.1.1.1l.1.1h2.9l.5,8.5a3.543,3.543,0,0,0,3.6,3.4h2.2V720h5.9Z" fill="#fff"/>
      <path id="Path_631" d="M923,715.8a1.382,1.382,0,0,1-1.6.4,9.019,9.019,0,0,1-10.4,0,1.5,1.5,0,0,1-1.8-.8,1.439,1.439,0,0,1,.4-1.5,1.374,1.374,0,0,1,1.8-.1l.2.2a1.277,1.277,0,0,1,.2,1.2,7.683,7.683,0,0,0,8.7,0,1.148,1.148,0,0,1,.4-1.2,1.363,1.363,0,0,1,1.8-.2c.1,0,.1.1.2.2a1.135,1.135,0,0,1,.4,1.6,1.236,1.236,0,0,0-.3.2Z" fill="#fff"/>
    </g>
  </g>
</svg>
