<svg xmlns="http://www.w3.org/2000/svg" xmlns:xlink="http://www.w3.org/1999/xlink" width="28" height="28" viewBox="0 0 28 28">
  <defs>
    <clipPath id="clip-Artboard_10">
      <rect width="28" height="28"/>
    </clipPath>
  </defs>
  <g id="Artboard_10" data-name="Artboard – 10" clip-path="url(#clip-Artboard_10)">
    <g id="Group_86" transform="translate(-1146.198 -683.6)">
      <path id="Path_546" d="M1160.1,698.2a6.8,6.8,0,1,1,6.8-6.8A6.744,6.744,0,0,1,1160.1,698.2Zm0-11.8a5,5,0,1,0,5,5,4.951,4.951,0,0,0-5-5Z" fill="#fff"/>
      <path id="Path_547" d="M1170,710.2h-19.6a2.689,2.689,0,0,1-2.7-2.7,2.662,2.662,0,0,1,.3-1.2,14.041,14.041,0,0,1,19.1-5.3,14.191,14.191,0,0,1,5.3,5.3,2.691,2.691,0,0,1-1.2,3.6A2.664,2.664,0,0,1,1170,710.2Zm-9.9-9.2a11.861,11.861,0,0,0-10.6,6.1,1.388,1.388,0,0,0,0,.9.755.755,0,0,0,.7.4h19.6a.9.9,0,0,0,.9-.9.6.6,0,0,0-.1-.4,11.413,11.413,0,0,0-10.5-6.1Z" fill="#fff"/>
    </g>
  </g>
</svg>
