<?xml version="1.0" encoding="utf-8"?>
<!-- Generator: Adobe Illustrator 24.3.0, SVG Export Plug-In . SVG Version: 6.00 Build 0)  -->
<svg version="1.1" id="圖層_1" xmlns="http://www.w3.org/2000/svg" xmlns:xlink="http://www.w3.org/1999/xlink" x="0px" y="0px"
	 viewBox="0 0 28 28" style="enable-background:new 0 0 28 28;" xml:space="preserve">
<style type="text/css">
	.st0{fill:#9AA4C2;}
	.st1{fill:#E3EBFF;}
</style>
<g id="Group_86" transform="translate(-1146.146 -683.389)">
	<path id="Path_546" class="st0" d="M1160.1,698.2c-3.8,0-6.8-3-6.8-6.8s3-6.8,6.8-6.8s6.8,3,6.8,6.8S1163.9,698.2,1160.1,698.2z
		 M1160.1,686.4c-2.8,0-5,2.2-5,5s2.2,5,5,5s5-2.2,5-5C1165.1,688.6,1162.9,686.4,1160.1,686.4L1160.1,686.4z"/>
	<path id="Path_547" class="st0" d="M1170,710.2h-19.6c-1.5,0-2.7-1.2-2.7-2.7c0-0.4,0.1-0.8,0.3-1.2c3.8-6.7,12.3-9.1,19.1-5.3
		c2.2,1.3,4.1,3.1,5.3,5.3c0.7,1.3,0.1,2.9-1.2,3.6C1170.8,710.1,1170.4,710.2,1170,710.2z M1160.1,701c-4.4-0.1-8.5,2.3-10.6,6.1
		c-0.1,0.3-0.1,0.6,0,0.9c0.2,0.3,0.4,0.4,0.7,0.4h19.6c0.5,0,0.9-0.4,0.9-0.9c0-0.1,0-0.3-0.1-0.4
		C1168.6,703.2,1164.5,700.9,1160.1,701L1160.1,701z"/>
</g>
<path class="st1" d="M23.9,22.8h-20c-0.2,0.3-0.4,0.6-0.6,0.9c-0.1,0.3-0.1,0.6,0,0.9C3.6,24.9,3.8,25,4.1,25h19.6
	c0.5,0,0.9-0.4,0.9-0.9c0-0.1,0-0.3-0.1-0.4C24.3,23.4,24.1,23.1,23.9,22.8z"/>
</svg>
