<svg xmlns="http://www.w3.org/2000/svg" xmlns:xlink="http://www.w3.org/1999/xlink" width="28" height="28" viewBox="0 0 28 28">
  <defs>
    <linearGradient id="linear-gradient" x1="-65.843" y1="38.383" x2="-65.768" y2="38.383" gradientUnits="objectBoundingBox">
      <stop offset="0" stop-color="#ffe200"/>
      <stop offset="1" stop-color="#ffce00"/>
    </linearGradient>
    <linearGradient id="linear-gradient-2" x1="-36.716" y1="44.971" x2="-36.675" y2="44.971" xlink:href="#linear-gradient"/>
    <clipPath id="clip-Artboard_9">
      <rect width="28" height="28"/>
    </clipPath>
  </defs>
  <g id="Artboard_9" data-name="Artboard – 9" clip-path="url(#clip-Artboard_9)">
    <g id="Group_725" transform="translate(-1146.273 -780.5)">
      <g id="Group_723">
        <circle id="Ellipse_48" cx="6.7" cy="6.7" r="6.7" transform="translate(1153.5 781.8)" fill="url(#linear-gradient)"/>
        <path id="Path_620" d="M1172.4,803.4a13.949,13.949,0,0,0-19-5.3,14.191,14.191,0,0,0-5.3,5.3,2.721,2.721,0,0,0,1.1,3.5,2.663,2.663,0,0,0,1.2.3H1170a2.647,2.647,0,0,0,2.6-2.6,3.727,3.727,0,0,0-.2-1.2Z" fill="url(#linear-gradient-2)"/>
      </g>
      <g id="Group_724">
        <circle id="Ellipse_49" cx="6.7" cy="6.7" r="6.7" transform="translate(1153.5 781.8)" fill="#feb12a"/>
        <path id="Path_621" d="M1172.4,803.4a13.6,13.6,0,0,0-12.1-7.1,14.913,14.913,0,0,0-2.1.2l10.7,10.7h1.2a2.647,2.647,0,0,0,2.6-2.6,10.374,10.374,0,0,0-.3-1.2Z" fill="#feb12a"/>
      </g>
    </g>
  </g>
</svg>
