<svg xmlns="http://www.w3.org/2000/svg" xmlns:xlink="http://www.w3.org/1999/xlink" width="28" height="28" viewBox="0 0 28 28">
  <defs>
    <linearGradient id="linear-gradient" x1="-161.386" y1="72.443" x2="-160.186" y2="71.899" gradientUnits="objectBoundingBox">
      <stop offset="0" stop-color="#ffe200"/>
      <stop offset="1" stop-color="#ffce00"/>
    </linearGradient>
    <linearGradient id="linear-gradient-2" x1="-67.117" y1="22.387" x2="-66.953" y2="22.348" xlink:href="#linear-gradient"/>
    <linearGradient id="linear-gradient-3" x1="-68.313" y1="22.493" x2="-68.15" y2="22.454" xlink:href="#linear-gradient"/>
    <linearGradient id="linear-gradient-4" x1="-155.98" y1="72.169" x2="-154.78" y2="71.625" xlink:href="#linear-gradient"/>
    <linearGradient id="linear-gradient-5" x1="-126.527" y1="72.286" x2="-125.855" y2="71.742" xlink:href="#linear-gradient"/>
    <clipPath id="clip-Artboard_8">
      <rect width="28" height="28"/>
    </clipPath>
  </defs>
  <g id="Artboard_8" data-name="Artboard – 8" clip-path="url(#clip-Artboard_8)">
    <g id="Group_734" transform="translate(-972.3 -819.55)">
      <g id="Group_732">
        <rect id="Rectangle_506" width="4.8" height="6.4" transform="translate(995.5 831)" fill="url(#linear-gradient)"/>
        <path id="Path_635" d="M981.4,834.2a4.941,4.941,0,0,1,4.1-4.9v-7.6H975.4a2.9,2.9,0,0,0-2.9,2.9h0v4.6h6.6v10h-6.6v3.3a2.9,2.9,0,0,0,2.9,2.9h10.1v-6.2A5.127,5.127,0,0,1,981.4,834.2Z" fill="url(#linear-gradient-2)"/>
        <path id="Path_636" d="M997.4,821.7H987.3v7.6a4.989,4.989,0,0,1,4,5.8,4.886,4.886,0,0,1-4,4v6.2h10.1a2.9,2.9,0,0,0,2.9-2.9h0v-3.3h-6.6v-10h6.6v-4.6a2.883,2.883,0,0,0-2.9-2.8Z" fill="url(#linear-gradient-3)"/>
        <rect id="Rectangle_507" width="4.8" height="6.4" transform="translate(972.5 831)" fill="url(#linear-gradient-4)"/>
        <path id="Path_637" d="M989.6,834.2a3.2,3.2,0,1,0-3.2,3.2A3.159,3.159,0,0,0,989.6,834.2Z" fill="url(#linear-gradient-5)"/>
      </g>
      <g id="Group_733">
        <rect id="Rectangle_508" width="4.8" height="6.4" transform="translate(995.5 831)" fill="#feb12a"/>
        <path id="Path_638" d="M985.5,821.7H975.4a2.375,2.375,0,0,0-1.2.3l8.7,8.7a5.1,5.1,0,0,1,2.6-1.4Z" fill="#feb12a"/>
        <path id="Path_639" d="M997.4,821.7H987.3v7.6a4.941,4.941,0,0,1,4.1,4.9,4.691,4.691,0,0,1-1.5,3.5l7.6,7.6a3.027,3.027,0,0,0,2.8-2.9v-3.3h-6.6v-10h6.6v-4.6a2.883,2.883,0,0,0-2.9-2.8Z" fill="#feb12a"/>
        <path id="Path_640" d="M986.4,831a3.168,3.168,0,0,0-2.3.9l4.5,4.5a3.084,3.084,0,0,0,0-4.5,3.374,3.374,0,0,0-2.2-.9Z" fill="#feb12a"/>
      </g>
    </g>
  </g>
</svg>
