<svg xmlns="http://www.w3.org/2000/svg" xmlns:xlink="http://www.w3.org/1999/xlink" width="28" height="28" viewBox="0 0 28 28">
  <defs>
    <clipPath id="clip-Artboard_7">
      <rect width="28" height="28"/>
    </clipPath>
  </defs>
  <g id="Artboard_7" data-name="Artboard – 7" clip-path="url(#clip-Artboard_7)">
    <g id="ft_market" transform="translate(0 -0.05)">
      <path id="Path_535" d="M25,2.2H3A2.9,2.9,0,0,0,.1,5.1h0V23A2.9,2.9,0,0,0,3,25.9H25A2.9,2.9,0,0,0,27.9,23h0V5.1A2.9,2.9,0,0,0,25,2.2ZM14,17.9a3.2,3.2,0,1,1,3.2-3.2A3.159,3.159,0,0,1,14,17.9ZM1.9,11.5h3v6.4h-3V11.5Zm0,11.4V19.6H6.7V9.6H1.9V5.1A1.049,1.049,0,0,1,3,4H13.1V9.8a4.989,4.989,0,0,0-4,5.8,4.886,4.886,0,0,0,4,4V24H3a1.049,1.049,0,0,1-1.1-1.1ZM25,24H14.9V19.6a4.989,4.989,0,0,0,4-5.8,4.886,4.886,0,0,0-4-4V4H25a1.11,1.11,0,0,1,1.1,1.1V9.7H21.3v10h4.8V23A1.028,1.028,0,0,1,25,24Zm1.1-12.5v6.4h-3V11.5Z" fill="#fff"/>
    </g>
  </g>
</svg>
