<?xml version="1.0" encoding="utf-8"?>
<!-- Generator: Adobe Illustrator 24.3.0, SVG Export Plug-In . SVG Version: 6.00 Build 0)  -->
<svg version="1.1" id="圖層_1" xmlns="http://www.w3.org/2000/svg" xmlns:xlink="http://www.w3.org/1999/xlink" x="0px" y="0px"
	 viewBox="0 0 19.7 25" style="enable-background:new 0 0 19.7 25;" xml:space="preserve">
<style type="text/css">
	.st0{fill:#9FA4AB;}
	.st1{fill:url(#SVGID_1_);}
</style>
<g>
	<path id="Path_612" class="st0" d="M6.1,19.8h7.7c0.4,0,0.8,0.3,0.8,0.7s-0.3,0.8-0.7,0.8c0,0,0,0-0.1,0H6.1
		c-0.4,0-0.8-0.3-0.8-0.7S5.6,19.8,6.1,19.8C6,19.8,6,19.8,6.1,19.8z"/>
	<path id="Rectangle_505" class="st0" d="M6.4,22.7h6.9l0,0l0,0c0,0.9-0.7,1.5-1.5,1.5l0,0H7.9C7.1,24.2,6.4,23.5,6.4,22.7L6.4,22.7
		L6.4,22.7L6.4,22.7z"/>
	<g>
		<path class="st0" d="M9.8,0.4c-5,0-9,4-9,9c0,3.5,2,6.5,4.9,8v0.2c0,0.4,0.3,0.7,0.7,0.7h6.7c0.4,0,0.7-0.3,0.7-0.7v-0.2
			c2.9-1.5,4.9-4.5,4.9-8C18.8,4.5,14.8,0.4,9.8,0.4z M16.1,8.8c0,0.5-0.3,0.9-0.7,0.9c-0.4,0-0.8-0.3-0.8-0.8c0-1.1-0.5-2-1.3-2.7
			c-0.7-0.7-1.6-1.1-2.6-1.1c-0.4,0-0.8-0.3-0.8-0.7c0-0.4,0.3-0.8,0.7-0.8h0.1c1.3,0,2.7,0.5,3.8,1.4C15.6,5.9,16.2,7.3,16.1,8.8z"
			/>
		<linearGradient id="SVGID_1_" gradientUnits="userSpaceOnUse" x1="10.8078" y1="0.9565" x2="10.8078" y2="25.3835">
			<stop  offset="0" style="stop-color:#C2C9D1"/>
			<stop  offset="1" style="stop-color:#9FA4AB"/>
		</linearGradient>
		<path class="st1" d="M18.8,9.4c0-5-4-9-9-9C7,0.4,4.4,1.8,2.8,3.9l12.6,12.6C17.5,14.8,18.8,12.3,18.8,9.4z M14.6,8.9
			c0-1.1-0.5-2-1.3-2.7c-0.7-0.7-1.6-1.1-2.6-1.1c-0.4,0-0.8-0.3-0.8-0.7c0-0.4,0.3-0.8,0.7-0.8h0.1c1.3,0,2.7,0.5,3.8,1.4
			c1.1,0.9,1.7,2.3,1.6,3.8c0,0.5-0.3,0.9-0.7,0.9C15,9.7,14.6,9.4,14.6,8.9z"/>
	</g>
</g>
</svg>
