<svg xmlns="http://www.w3.org/2000/svg" xmlns:xlink="http://www.w3.org/1999/xlink" width="15.5" height="15.5" viewBox="0 0 15.5 15.5">
  <defs>
    <linearGradient id="linear-gradient" x1="-0.002" y1="0.5" x2="1.002" y2="0.5" gradientUnits="objectBoundingBox">
      <stop offset="0" stop-color="#00dcff"/>
      <stop offset="1" stop-color="#00c2ff"/>
    </linearGradient>
    <linearGradient id="linear-gradient-2" x1="0" y1="0.5" x2="1" y2="0.5" xlink:href="#linear-gradient"/>
    <linearGradient id="linear-gradient-3" x1="0" y1="0.5" x2="1" y2="0.5" xlink:href="#linear-gradient"/>
  </defs>
  <g id="Group_776" data-name="Group 776" transform="translate(-1251.549 -988.871)">
    <path id="Path_661" data-name="Path 661" d="M1259.3,1004.371a7.75,7.75,0,1,1,7.75-7.75A7.759,7.759,0,0,1,1259.3,1004.371Zm0-14.308a6.558,6.558,0,1,0,6.558,6.558A6.565,6.565,0,0,0,1259.3,990.063Z" transform="translate(0)" fill="url(#linear-gradient)"/>
    <g id="Group_784" data-name="Group 784" transform="translate(1256.414 991.087)">
      <g id="Group_783" data-name="Group 783">
        <path id="Path_492" data-name="Path 492" d="M1263.829,1004.487q-.822.324-1.311.494a3.454,3.454,0,0,1-1.137.17,2.259,2.259,0,0,1-1.546-.485,1.563,1.563,0,0,1-.551-1.231,4.521,4.521,0,0,1,.04-.593c.028-.2.072-.429.133-.684l.686-2.425c.06-.232.112-.454.154-.658a2.876,2.876,0,0,0,.061-.57.879.879,0,0,0-.19-.647,1.082,1.082,0,0,0-.733-.18,1.9,1.9,0,0,0-.545.08c-.184.057-.344.109-.476.162l.181-.746q.673-.274,1.288-.47a3.829,3.829,0,0,1,1.163-.2,2.226,2.226,0,0,1,1.524.477,1.586,1.586,0,0,1,.535,1.239c0,.1-.013.291-.037.556a3.67,3.67,0,0,1-.136.728l-.682,2.414a6.775,6.775,0,0,0-.15.663,3.483,3.483,0,0,0-.067.566.811.811,0,0,0,.215.655,1.216,1.216,0,0,0,.746.175,2.176,2.176,0,0,0,.566-.087,3.221,3.221,0,0,0,.456-.153Z" transform="translate(-1258.414 -994.087)" fill="url(#linear-gradient-2)"/>
        <path id="Path_493" data-name="Path 493" d="M1263.708,994.688a1.717,1.717,0,0,1-2.3,0,1.446,1.446,0,0,1-.11-2.042,1.266,1.266,0,0,1,.11-.111,1.641,1.641,0,0,1,1.154-.448,1.619,1.619,0,0,1,1.148.448,1.456,1.456,0,0,1,.1,2.056C1263.774,994.625,1263.742,994.657,1263.708,994.688Z" transform="translate(-1258.414 -992.087)" fill="url(#linear-gradient-3)"/>
      </g>
    </g>
  </g>
</svg>
