<?xml version="1.0" encoding="utf-8"?>
<!-- Generator: Adobe Illustrator 24.3.0, SVG Export Plug-In . SVG Version: 6.00 Build 0)  -->
<svg version="1.1" id="圖層_1" xmlns="http://www.w3.org/2000/svg" xmlns:xlink="http://www.w3.org/1999/xlink" x="0px" y="0px"
	 viewBox="0 0 26 26" style="enable-background:new 0 0 26 26;" xml:space="preserve">
<style type="text/css">
	.st0{fill:#9FA4AB;}
	.st1{fill:url(#SVGID_1_);}
	.st2{fill:url(#SVGID_2_);}
	.st3{fill:url(#SVGID_3_);}
</style>
<g>
	<path class="st0" d="M20.4,8.1c-2.8,0-5.1,2.3-5.1,5.1c0,2.8,2.3,5.1,5.1,5.1c2.8,0,5.1-2.3,5.1-5.1C25.5,10.3,23.2,8.1,20.4,8.1z
		 M23.4,13.8h-2.4v2.4c0,0.4-0.3,0.6-0.6,0.6c-0.4,0-0.6-0.3-0.6-0.6v-2.4h-2.4c-0.4,0-0.6-0.3-0.6-0.6c0-0.4,0.3-0.6,0.6-0.6h2.4
		v-2.4c0-0.4,0.3-0.6,0.6-0.6c0.4,0,0.6,0.3,0.6,0.6v2.4h2.4c0.4,0,0.6,0.3,0.6,0.6C24.1,13.5,23.8,13.8,23.4,13.8z"/>
	<path class="st0" d="M13.4,13.1c0-3.6,2.7-6.5,6.1-7c-0.5-3.3-3.3-5.8-6.6-5.8c-3.7,0-6.7,3-6.7,6.7s3,6.7,6.7,6.7
		c0.2,0,0.4,0,0.6,0C13.4,13.6,13.4,13.4,13.4,13.1z"/>
	<path class="st0" d="M23.4,19.5c-0.9,0.4-1.9,0.7-3,0.7c-3.3,0-6.1-2.3-6.9-5.4c-0.2,0-0.5,0-0.7,0c-5.1,0-9.9,2.8-12,7
		c-0.4,0.8-0.4,1.8,0.1,2.6c0.5,0.8,1.3,1.3,2.2,1.3h19.4c0.9,0,1.8-0.5,2.2-1.3c0.5-0.8,0.5-1.7,0.1-2.6
		C24.4,21,23.9,20.2,23.4,19.5z"/>
</g>
<g>
	<linearGradient id="SVGID_1_" gradientUnits="userSpaceOnUse" x1="12.7829" y1="1.6391" x2="12.7829" y2="39.2089">
		<stop  offset="0" style="stop-color:#C2C9D1"/>
		<stop  offset="1" style="stop-color:#9FA4AB"/>
	</linearGradient>
	<path class="st1" d="M13.4,13.8c0-0.2,0-0.4,0-0.6c0-3.6,2.7-6.5,6.1-7c-0.5-3.3-3.3-5.8-6.6-5.8c-3.7,0-6.7,3-6.7,6.7
		s3,6.7,6.7,6.7C13,13.8,13.2,13.8,13.4,13.8z"/>
	<linearGradient id="SVGID_2_" gradientUnits="userSpaceOnUse" x1="18.0589" y1="1.6391" x2="18.0589" y2="39.2089">
		<stop  offset="0" style="stop-color:#C2C9D1"/>
		<stop  offset="1" style="stop-color:#9FA4AB"/>
	</linearGradient>
	<path class="st2" d="M23.4,19.5c-0.9,0.4-1.9,0.7-3,0.7c-3.3,0-6.1-2.3-6.9-5.4c-0.2,0-0.5,0-0.7,0c-0.6,0-1.2,0-1.8,0.1l10.7,10.7
		h0.8c0.9,0,1.8-0.5,2.2-1.3c0.5-0.8,0.5-1.7,0.1-2.6C24.4,21,23.9,20.2,23.4,19.5z"/>
	<linearGradient id="SVGID_3_" gradientUnits="userSpaceOnUse" x1="20.4163" y1="1.6391" x2="20.4163" y2="39.2089">
		<stop  offset="0" style="stop-color:#C2C9D1"/>
		<stop  offset="1" style="stop-color:#9FA4AB"/>
	</linearGradient>
	<path class="st3" d="M20.4,8.1c-2.8,0-5.1,2.3-5.1,5.1c0,2.8,2.3,5.1,5.1,5.1c2.8,0,5.1-2.3,5.1-5.1C25.5,10.3,23.2,8.1,20.4,8.1z
		 M23.4,13.8h-2.4v2.4c0,0.4-0.3,0.6-0.6,0.6c-0.4,0-0.6-0.3-0.6-0.6v-2.4h-2.4c-0.4,0-0.6-0.3-0.6-0.6c0-0.4,0.3-0.6,0.6-0.6h2.4
		v-2.4c0-0.4,0.3-0.6,0.6-0.6c0.4,0,0.6,0.3,0.6,0.6v2.4h2.4c0.4,0,0.6,0.3,0.6,0.6C24.1,13.5,23.8,13.8,23.4,13.8z"/>
</g>
</svg>
