<svg xmlns="http://www.w3.org/2000/svg" xmlns:xlink="http://www.w3.org/1999/xlink" width="26.956" height="27.4" viewBox="0 0 26.956 27.4">
  <defs>
    <linearGradient id="linear-gradient" y1="0.5" x2="1" y2="0.5" gradientUnits="objectBoundingBox">
      <stop offset="0" stop-color="#ffb8e5"/>
      <stop offset="1" stop-color="#fe7dd6"/>
    </linearGradient>
    <linearGradient id="linear-gradient-3" x1="0.5" y1="-56.124" x2="0.5" y2="-58.928" xlink:href="#linear-gradient"/>
  </defs>
  <g id="Group_993" data-name="Group 993" transform="translate(-960.793 -916.312)">
    <path id="Path_823" data-name="Path 823" d="M981.084,924.112a5.5,5.5,0,1,0,5.5,5.5A5.456,5.456,0,0,0,981.084,924.112Zm3.236,6.149h-2.589v2.589a.647.647,0,1,1-1.294,0v-2.589h-2.589a.647.647,0,1,1,0-1.294h2.589v-2.589a.647.647,0,0,1,1.294,0v2.589h2.589a.622.622,0,0,1,.647.647C985.075,929.937,984.751,930.261,984.32,930.261Z" transform="translate(1.164 0.614)" fill="#ffd2f1"/>
    <path id="Path_824" data-name="Path 824" d="M974.249,930.12a7.669,7.669,0,0,1,6.58-7.551,7.208,7.208,0,1,0-7.12,8.2h.647C974.249,930.659,974.249,930.443,974.249,930.12Z" transform="translate(0.448)" fill="url(#linear-gradient)"/>
    <path id="Path_825" data-name="Path 825" d="M985.484,935.882a7.929,7.929,0,0,1-3.236.755,7.738,7.738,0,0,1-7.443-5.825h-.755a14.535,14.535,0,0,0-12.945,7.551,2.888,2.888,0,0,0,.108,2.8,2.811,2.811,0,0,0,2.373,1.4h20.928a2.68,2.68,0,0,0,2.373-1.4,2.877,2.877,0,0,0,.108-2.8A18.991,18.991,0,0,0,985.484,935.882Z" transform="translate(0 1.142)" fill="url(#linear-gradient)"/>
    <path id="Path_826" data-name="Path 826" d="M974.249,930.867v-.647a7.669,7.669,0,0,1,6.58-7.551,7.208,7.208,0,1,0-7.12,8.2Z" transform="translate(0.448 0.008)" fill="url(#linear-gradient-3)"/>
    <path id="Path_827" data-name="Path 827" d="M981.084,924.112a5.5,5.5,0,1,0,5.5,5.5A5.456,5.456,0,0,0,981.084,924.112Zm3.236,6.149h-2.589v2.589a.647.647,0,1,1-1.294,0v-2.589h-2.589a.647.647,0,1,1,0-1.294h2.589v-2.589a.647.647,0,0,1,1.294,0v2.589h2.589a.622.622,0,0,1,.647.647C985.075,929.937,984.751,930.261,984.32,930.261Z" transform="translate(1.164 0.614)" fill="#ffd2f1"/>
  </g>
</svg>
