<svg xmlns="http://www.w3.org/2000/svg" xmlns:xlink="http://www.w3.org/1999/xlink" width="30" height="30" viewBox="0 0 30 30">
  <defs>
    <clipPath id="clip-Artboard_15">
      <rect width="30" height="30"/>
    </clipPath>
  </defs>
  <g id="Artboard_15" data-name="Artboard – 15" clip-path="url(#clip-Artboard_15)">
    <g id="ic_list" transform="translate(-188.615 -95)">
      <path id="Path_1" data-name="Path 1" d="M200.569,115.591a3.154,3.154,0,0,1,4.46,0l2.23,2.23,5.767-5.767V98.1a2.1,2.1,0,0,0-2.1-2.1H194.1a2.1,2.1,0,0,0-2.1,2.1v23.128a2.1,2.1,0,0,0,2.1,2.1h9.748l-3.282-3.282A3.154,3.154,0,0,1,200.569,115.591Zm-3.312-14.335h10.513a1.051,1.051,0,0,1,0,2.1H197.256a1.051,1.051,0,0,1,0-2.1Zm0,5.256h6.308a1.051,1.051,0,0,1,0,2.1h-6.308a1.051,1.051,0,0,1,0-2.1Zm0,7.359a1.051,1.051,0,0,1,0-2.1h2.1a1.051,1.051,0,1,1,0,2.1Z" fill="#b7bdc5"/>
      <path id="Path_2" data-name="Path 2" d="M503.861,592.788a1.051,1.051,0,0,0-1.487,0l-8.177,8.177-3.718-3.718a1.051,1.051,0,1,0-1.487,1.487l4.46,4.46a1.051,1.051,0,0,0,1.487,0l8.92-8.919A1.051,1.051,0,0,0,503.861,592.788Z" transform="translate(-286.938 -480.169)" fill="#9fa4ab"/>
    </g>
  </g>
</svg>
