<?xml version="1.0" encoding="utf-8"?>
<!-- Generator: Adobe Illustrator 24.3.0, SVG Export Plug-In . SVG Version: 6.00 Build 0)  -->
<svg version="1.1" id="圖層_1" xmlns="http://www.w3.org/2000/svg" xmlns:xlink="http://www.w3.org/1999/xlink" x="0px" y="0px"
	 viewBox="0 0 21.6 21.5" style="enable-background:new 0 0 21.6 21.5;" xml:space="preserve">
<style type="text/css">
	.st0{fill:#9FA4AB;}
	.st1{fill:url(#SVGID_1_);}
	.st2{fill:url(#SVGID_2_);}
</style>
<g>
	<path class="st0" d="M21.6,7.4c-0.1-1.5-0.3-3-0.8-4.4c-0.3-0.8-0.6-1.6-1.1-2.2c-0.3-0.3-0.6-0.6-1-0.7c-0.1,0-0.1,0-0.2,0
		c-0.7,0-1.4,0-2.1,0c-0.1,0.1-0.2,0.1-0.2,0.2c-1.9,1.3-2.7,2.3-4.8,3.2C9.7,4.1,9.2,4.6,7.4,5C7.3,5,7.3,5,7.2,5.2
		C7.1,6,7,6.9,6.9,7.7c-0.1,1.7,0,3.4,0.3,5.1c0,0.1,0.1,0.2,0.2,0.2c2.2,0.5,3,1.1,5.1,2c1.8,0.8,2.3,1.7,3.9,2.9c0,0,0.1,0,0.2,0
		c0.6,0,1.2,0,1.8,0c0.3,0,0.6-0.1,0.9-0.3c0.3-0.2,0.5-0.5,0.8-0.8c0.5-0.8,0.8-1.6,1-2.5c0.3-1.3,0.5-2.5,0.6-3.8
		c0-0.2,0-0.5,0-0.7c0-0.5,0-1,0-1.5C21.7,8,21.7,7.7,21.6,7.4z M19.5,13.8c-0.2,0.7-0.5,1.4-0.9,2.1c-0.1,0.2-0.3,0.4-0.5,0.6
		c-0.3,0.2-0.5,0.2-0.7,0c-0.3-0.2-0.5-0.6-0.7-0.9c-0.4-0.8-0.7-1.7-0.9-2.6c-0.3-1.6-0.4-3.3-0.4-4.9c0.1-1.3,0.2-2.6,0.6-3.8
		c0.2-0.7,0.5-1.5,0.9-2.1C17,2,17.2,1.8,17.4,1.6c0.3-0.2,0.5-0.2,0.7,0c0.3,0.2,0.5,0.5,0.6,0.7c0.4,0.7,0.7,1.5,0.9,2.4
		C20,6.1,20.1,7.5,20.1,9C20.1,10.6,20,12.2,19.5,13.8z"/>
	<path class="st0" d="M8.8,15.2c0-0.1-0.1-0.1-0.2-0.1c-0.7-0.1-3-0.6-3.4-0.7c0,0.1,0,0.1,0,0.1c0.6,2.5,0.9,3.8,1.6,6.3
		c0.1,0.3,0.2,0.6,0.6,0.7c0.1,0,0.1,0,0.2,0s0.2,0,0.2-0.1c0.9-0.4,1.9-0.7,2.8-1.1c0.5-0.2,0.6-0.6,0.4-1
		C10.1,17.5,9.8,17,8.8,15.2z"/>
	<path class="st0" d="M5.2,5.3L5.2,5.3C4.4,5.4,4.8,5.5,4.1,5.5c-0.3,0-0.7,0-1.1,0C2,5.6,1.2,6.1,0.7,6.8L0.5,7.2
		C0.2,7.7,0,8.3,0,9c0,0.6,0.2,1.3,0.5,1.8l0.2,0.3C1.2,11.9,2,12.4,3,12.4l0,0c1.1,0,0.9,0.1,1.9,0.2c0.1,0,0.2,0,0.3,0
		C4.8,10.2,4.8,7.8,5.2,5.3z"/>
	<path class="st0" d="M18,6.2c-0.2-0.2-0.3-0.2-0.4,0c-0.1,0.1-0.2,0.3-0.3,0.5c-0.2,0.5-0.3,1-0.4,1.6c-0.1,0.8,0,1.7,0.2,2.5
		c0.1,0.4,0.2,0.7,0.5,1c0.2,0.2,0.3,0.2,0.5,0c0.1-0.2,0.3-0.4,0.3-0.7c0.2-0.7,0.3-1.4,0.3-2.1c0-0.7-0.1-1.3-0.3-2
		C18.3,6.7,18.2,6.4,18,6.2z"/>
</g>
<g>
	
		<linearGradient id="SVGID_1_" gradientUnits="userSpaceOnUse" x1="17.7804" y1="23.8844" x2="17.7804" y2="4.9673" gradientTransform="matrix(1 0 0 -1 0 24)">
		<stop  offset="0" style="stop-color:#C2C9D1"/>
		<stop  offset="1" style="stop-color:#9FA4AB"/>
	</linearGradient>
	<path class="st1" d="M18,6.2c-0.2-0.2-0.3-0.2-0.4,0c-0.1,0.1-0.2,0.3-0.3,0.5c-0.2,0.5-0.3,1-0.4,1.6c-0.1,0.8,0,1.7,0.2,2.5
		c0.1,0.4,0.2,0.7,0.5,1c0.2,0.2,0.3,0.2,0.5,0c0.1-0.2,0.3-0.4,0.3-0.7c0.2-0.7,0.3-1.4,0.3-2.1c0-0.7-0.1-1.3-0.3-2
		C18.3,6.7,18.2,6.4,18,6.2z"/>
	
		<linearGradient id="SVGID_2_" gradientUnits="userSpaceOnUse" x1="14.3" y1="23.9" x2="14.3" y2="4.9829" gradientTransform="matrix(1 0 0 -1 0 24)">
		<stop  offset="0" style="stop-color:#C2C9D1"/>
		<stop  offset="1" style="stop-color:#9FA4AB"/>
	</linearGradient>
	<path class="st2" d="M21.6,7.4c-0.1-1.5-0.3-3-0.8-4.4c-0.3-0.8-0.6-1.6-1.1-2.2c-0.3-0.3-0.6-0.6-1-0.7c-0.1,0-0.1,0-0.2,0
		c-0.7,0-1.4,0-2.1,0c-0.1,0.1-0.2,0.1-0.2,0.2c-1.9,1.3-2.7,2.3-4.8,3.2C9.6,4.1,9.1,4.6,7.4,5C7.3,5,7.2,5.1,7.2,5.2
		C7.1,5.8,7,6.5,7,7.2C7,7.2,18.1,18,18.3,18c0.3,0,0.6-0.1,0.9-0.3c0.3-0.2,0.5-0.5,0.8-0.8c0.5-0.8,0.8-1.6,1-2.5
		c0.3-1.3,0.5-2.5,0.6-3.8c0-0.2,0-0.5,0-0.7c0-0.5,0-1,0-1.5C21.6,8,21.6,7.7,21.6,7.4z M19.5,13.8c-0.2,0.7-0.5,1.4-0.9,2.1
		c-0.1,0.2-0.3,0.4-0.5,0.6c-0.3,0.2-0.5,0.2-0.7,0c-0.3-0.2-0.5-0.6-0.7-0.9c-0.4-0.8-0.7-1.7-0.9-2.6c-0.3-1.6-0.4-3.3-0.4-4.9
		c0.1-1.3,0.2-2.6,0.6-3.8c0.2-0.7,0.5-1.5,0.9-2.1C17,2,17.2,1.8,17.4,1.6c0.3-0.2,0.5-0.2,0.7,0c0.3,0.2,0.5,0.5,0.6,0.7
		c0.4,0.7,0.7,1.5,0.9,2.4C20,6.1,20.1,7.5,20.1,9C20.1,10.6,19.9,12.2,19.5,13.8z"/>
</g>
</svg>
