<svg xmlns="http://www.w3.org/2000/svg" xmlns:xlink="http://www.w3.org/1999/xlink" width="33.565" height="27.818" viewBox="0 0 33.565 27.818">
  <defs>
    <linearGradient id="linear-gradient" x1="0.388" y1="0.049" x2="0.627" y2="0.906" gradientUnits="objectBoundingBox">
      <stop offset="0" stop-color="#e8d2be"/>
      <stop offset="1" stop-color="#c9ab87"/>
    </linearGradient>
    <linearGradient id="linear-gradient-2" x1="0.087" y1="0.033" x2="0.548" y2="0.889" xlink:href="#linear-gradient"/>
    <linearGradient id="linear-gradient-3" x1="0.369" y1="-0.052" x2="0.616" y2="0.9" xlink:href="#linear-gradient"/>
    <linearGradient id="linear-gradient-4" x1="0.472" y1="0.136" x2="0.586" y2="0.522" xlink:href="#linear-gradient"/>
    <linearGradient id="linear-gradient-5" x1="0.473" y1="0.328" x2="0.594" y2="1.228" xlink:href="#linear-gradient"/>
    <linearGradient id="linear-gradient-6" x1="0.47" y1="-1.468" x2="0.587" y2="-0.367" xlink:href="#linear-gradient"/>
    <linearGradient id="linear-gradient-7" x1="0.484" y1="-0.118" x2="0.664" y2="0.695" xlink:href="#linear-gradient"/>
    <linearGradient id="linear-gradient-8" x1="0.484" y1="-0.697" x2="0.665" y2="0.536" xlink:href="#linear-gradient"/>
    <linearGradient id="linear-gradient-9" x1="0.484" y1="-0.194" x2="0.664" y2="1.142" xlink:href="#linear-gradient"/>
    <linearGradient id="linear-gradient-10" x1="-0.144" y1="-0.276" x2="1.201" y2="0.83" xlink:href="#linear-gradient"/>
    <linearGradient id="linear-gradient-11" x1="0.048" y1="-0.296" x2="1.023" y2="0.81" xlink:href="#linear-gradient"/>
    <linearGradient id="linear-gradient-12" x1="0.5" y1="0.015" x2="0.5" y2="0.988" gradientUnits="objectBoundingBox">
      <stop offset="0" stop-color="#fff"/>
      <stop offset="1" stop-color="#f4e9df"/>
    </linearGradient>
    <linearGradient id="linear-gradient-13" x1="0.5" y1="-0.262" x2="0.5" y2="1.218" xlink:href="#linear-gradient-12"/>
    <linearGradient id="linear-gradient-14" x1="0.427" y1="0.034" x2="0.569" y2="0.883" xlink:href="#linear-gradient-12"/>
    <linearGradient id="linear-gradient-15" x1="0.481" y1="0.107" x2="0.634" y2="2.972" xlink:href="#linear-gradient-12"/>
    <linearGradient id="linear-gradient-16" x1="0.354" y1="-2.344" x2="0.503" y2="0.608" xlink:href="#linear-gradient-12"/>
  </defs>
  <g id="Group_992" data-name="Group 992" transform="translate(-1010.587 -912.473)">
    <path id="Path_804" data-name="Path 804" d="M1021.3,930.3l-4.067,1.327s1.457,4.47,2.343,7.184a2.139,2.139,0,0,0,2.7,1.371h0a2.141,2.141,0,0,0,1.37-2.7c-.885-2.715-2.343-7.185-2.343-7.185Z" fill-rule="evenodd" fill="url(#linear-gradient)"/>
    <path id="Path_805" data-name="Path 805" d="M1020.375,930.607l.93-.3s1.458,4.47,2.343,7.185a2.141,2.141,0,0,1-1.37,2.7h0a2.14,2.14,0,0,1-1.633-.127h0a.028.028,0,0,1,.011-.053,2.17,2.17,0,0,0,.5-.1h0a2.141,2.141,0,0,0,1.37-2.7l-2.153-6.6Z" fill-rule="evenodd" fill="url(#linear-gradient-2)"/>
    <path id="Path_806" data-name="Path 806" d="M1018.253,931.3l2.152,6.6a2.138,2.138,0,0,0,2.7,1.37h0a2.184,2.184,0,0,0,.392-.173.02.02,0,0,1,.023,0,.019.019,0,0,1,0,.023h0a2.136,2.136,0,0,1-1.243,1.065h0a2.139,2.139,0,0,1-2.7-1.371c-.886-2.714-2.343-7.184-2.343-7.184l1.015-.331Z" fill-rule="evenodd" fill="url(#linear-gradient-3)"/>
    <path id="Path_807" data-name="Path 807" d="M1038.058,913.436l-6.5,4.473c-1.961,1.35-3.062,2.431-5.429,2.683-2.2.234-4.6.246-4.6.246l.623,11.64s1.786-.148,4-.15a12.467,12.467,0,0,1,6.283,1.869l6.942,3.754-1.312-24.515Z" fill-rule="evenodd" fill="url(#linear-gradient-4)"/>
    <path id="Path_808" data-name="Path 808" d="M1038.225,916.562l-6.5,4.474c-1.961,1.349-3.062,2.43-5.429,2.682-2.2.235-4.6.247-4.6.247l-.168-3.127s2.4-.012,4.6-.246c2.367-.252,3.468-1.333,5.429-2.683l6.5-4.473.167,3.126Z" fill-rule="evenodd" fill="url(#linear-gradient-5)"/>
    <path id="Path_809" data-name="Path 809" d="M1039.37,937.951l-6.942-3.754a12.467,12.467,0,0,0-6.283-1.869c-2.212,0-4,.15-4,.15l-.167-3.12,4.616,0c2.381,0,3.572.59,5.665,1.723l6.941,3.754.168,3.12Z" fill-rule="evenodd" fill="url(#linear-gradient-6)"/>
    <path id="Path_810" data-name="Path 810" d="M1015.905,921.139a5.831,5.831,0,1,1-5.309,6.12,5.734,5.734,0,0,1,5.309-6.12Z" fill-rule="evenodd" fill="url(#linear-gradient-7)"/>
    <path id="Path_811" data-name="Path 811" d="M1021.548,925.109a6.022,6.022,0,0,1,.288,1.549,5.631,5.631,0,1,1-11.24.6h0a.408.408,0,0,1,.751-.242,5.585,5.585,0,0,0,5.013,2.642,5.669,5.669,0,0,0,5.188-4.55Z" fill-rule="evenodd" fill="url(#linear-gradient-8)"/>
    <path id="Path_812" data-name="Path 812" d="M1011.357,927.416a.4.4,0,0,1-.757-.156h0a5.631,5.631,0,1,1,11.24-.6,6.022,6.022,0,0,1-.12,1.562,5.667,5.667,0,0,0-5.645-3.979,5.6,5.6,0,0,0-4.714,3.175Z" fill-rule="evenodd" fill="url(#linear-gradient-9)"/>
    <path id="Path_813" data-name="Path 813" d="M1039.19,912.507c2.309-.124,4.5,5.708,4.893,13.015s-1.167,13.338-3.477,13.462-4.5-5.708-4.892-13.015,1.167-13.338,3.476-13.462Z" fill="#ffb538" fill-rule="evenodd"/>
    <path id="Path_814" data-name="Path 814" d="M1040.935,938.925a1.369,1.369,0,0,1-.329.059c-2.309.123-4.5-5.708-4.892-13.015s1.167-13.338,3.476-13.462a1.378,1.378,0,0,1,.333.023c-1.811.633-2.955,6.419-2.583,13.374s2.127,12.586,4,13.021Z" fill-rule="evenodd" fill="url(#linear-gradient-10)"/>
    <path id="Path_815" data-name="Path 815" d="M1039.8,912.474c1.971-.1,3.889,5.741,4.28,13.048s-.892,13.324-2.863,13.429-3.889-5.741-4.28-13.047.892-13.324,2.863-13.43Z" fill-rule="evenodd" fill="url(#linear-gradient-11)"/>
    <path id="Path_816" data-name="Path 816" d="M1039.844,913.919c1.474-.079,2.947,5.046,3.289,11.436s-.576,11.643-2.05,11.722-2.947-5.045-3.289-11.436.577-11.643,2.05-11.722Z" fill-rule="evenodd" fill="url(#linear-gradient-12)"/>
    <path id="Path_817" data-name="Path 817" d="M1038.01,918.251c2.242.606,4.071,3.662,4.272,7.427.2,3.706-1.244,6.9-3.353,7.8a39.324,39.324,0,0,1-1.135-7.837,40.749,40.749,0,0,1,.216-7.39Z" fill-rule="evenodd" fill="url(#linear-gradient-13)"/>
    <path id="Path_818" data-name="Path 818" d="M1037.731,922.172a3.426,3.426,0,1,1,.36,6.84c-.133-1.065-.234-2.2-.3-3.371-.064-1.206-.084-2.371-.063-3.469Z" fill="#c9ab87" fill-rule="evenodd"/>
    <path id="Path_819" data-name="Path 819" d="M1041.047,924.032a3.254,3.254,0,0,1,.387,1.371,3.535,3.535,0,0,1-3.343,3.609c-.079-.635-.147-1.3-.2-1.973a3.572,3.572,0,0,0,3.158-3.007Z" fill="#c9ab87" fill-rule="evenodd"/>
    <path id="Path_820" data-name="Path 820" d="M1016,921.134c-.823.044-1.352,2.688-1.18,5.9s.979,5.784,1.8,5.74l7.7-.412c-.823.044-1.631-2.528-1.8-5.74s.357-5.855,1.18-5.9" fill-rule="evenodd" fill="url(#linear-gradient-14)"/>
    <path id="Path_821" data-name="Path 821" d="M1015.152,924.29a.265.265,0,0,1-.208-.082.271.271,0,0,1-.073-.211c.173-1.689.586-2.834,1.125-2.863l7.7-.411c-.572.03-1,1.315-1.153,3.172l-7.386.395Z" fill-rule="evenodd" fill="url(#linear-gradient-15)"/>
    <path id="Path_822" data-name="Path 822" d="M1015.2,930.069a.3.3,0,0,1,.278-.363h0l7.348-.394c.348,1.842.886,3.082,1.459,3.051l-7.667.411c-.536.028-1.067-1.056-1.418-2.705Z" fill-rule="evenodd" fill="url(#linear-gradient-16)"/>
  </g>
</svg>
