<svg xmlns="http://www.w3.org/2000/svg" xmlns:xlink="http://www.w3.org/1999/xlink" width="22.746" height="22.707" viewBox="0 0 22.746 22.707">
  <defs>
    <linearGradient id="linear-gradient" x1="0.024" y1="0.135" x2="1.024" y2="0.135" gradientUnits="objectBoundingBox">
      <stop offset="0" stop-color="#c2c9d1"/>
      <stop offset="1" stop-color="#9fa4ab"/>
    </linearGradient>
    <linearGradient id="linear-gradient-2" x1="0" y1="0.135" x2="1" y2="0.135" xlink:href="#linear-gradient"/>
    <linearGradient id="linear-gradient-3" x1="0" y1="0.5" x2="1" y2="0.5" xlink:href="#linear-gradient"/>
  </defs>
  <g id="Group_996" data-name="Group 996" transform="translate(-1155.641 -1004.272)">
    <path id="Path_828" data-name="Path 828" d="M1169.239,1008.683h0Z" fill="#9fa4ab"/>
    <path id="Path_829" data-name="Path 829" d="M1176.9,1008.683h-19.78a1.483,1.483,0,0,0-1.483,1.483v2.226a.741.741,0,0,0,.741.741h21.264a.741.741,0,0,0,.741-.741v-2.226A1.483,1.483,0,0,0,1176.9,1008.683Z" fill="#9fa4ab"/>
    <path id="Path_830" data-name="Path 830" d="M1159.882,1006.863a1.455,1.455,0,0,1,.8-.965,1.43,1.43,0,0,1,1.6.242l2.508,2.274v.269h4.45v-.273l2.469-2.239a1.485,1.485,0,0,1,1.4-.359,1.444,1.444,0,0,1,1.068,1.53,1.5,1.5,0,0,1-1.524,1.341h2.592a2.644,2.644,0,0,0,.4-1.144,2.945,2.945,0,0,0-4.905-2.5l-2.091,1.895a2.22,2.22,0,0,0-3.286,0l-2.094-1.9a2.945,2.945,0,0,0-4.905,2.5,2.651,2.651,0,0,0,.4,1.143h2.524A1.464,1.464,0,0,1,1159.882,1006.863Z" fill="#9fa4ab"/>
    <g id="Group_994" data-name="Group 994">
      <path id="Path_831" data-name="Path 831" d="M1157.124,1015.1V1025.5a1.483,1.483,0,0,0,1.483,1.483h7.664V1015.1Z" fill="#9fa4ab"/>
      <path id="Path_832" data-name="Path 832" d="M1168.241,1015.1v11.876h7.179a1.483,1.483,0,0,0,1.484-1.483V1015.1Z" fill="#9fa4ab"/>
    </g>
    <g id="Group_995" data-name="Group 995">
      <path id="Path_833" data-name="Path 833" d="M1172.655,1008.683h0Z" fill="url(#linear-gradient)"/>
      <path id="Path_834" data-name="Path 834" d="M1169.239,1008.683h0Z" fill="url(#linear-gradient-2)"/>
      <path id="Path_835" data-name="Path 835" d="M1178.387,1012.392v-2.226a1.483,1.483,0,0,0-1.483-1.483h-1.656a2.644,2.644,0,0,0,.4-1.144,2.945,2.945,0,0,0-4.905-2.5l-2.091,1.895a2.22,2.22,0,0,0-3.286,0l-2.094-1.9a2.939,2.939,0,0,0-4.906,1.94l6.152,6.152h13.124A.741.741,0,0,0,1178.387,1012.392Zm-13.6-3.956v.247h-3.49a1.46,1.46,0,0,1-.616-2.785,1.428,1.428,0,0,1,1.6.242l2.508,2.274Zm7.867.247h-3.417v-.273c.568-.516,1.8-1.633,2.47-2.239a1.482,1.482,0,0,1,1.4-.359,1.444,1.444,0,0,1,1.068,1.53A1.5,1.5,0,0,1,1172.656,1008.683Z" fill="url(#linear-gradient-3)"/>
      <path id="Path_836" data-name="Path 836" d="M1176.9,1025.5V1015.1h-8.663v1.75l8.661,8.661Z" fill="url(#linear-gradient-3)"/>
    </g>
  </g>
</svg>
