<svg xmlns="http://www.w3.org/2000/svg" xmlns:xlink="http://www.w3.org/1999/xlink" width="33.979" height="25.42" viewBox="0 0 33.979 25.42">
  <defs>
    <linearGradient id="linear-gradient" x1="0.5" y1="0.04" x2="0.5" y2="1.005" gradientUnits="objectBoundingBox">
      <stop offset="0" stop-color="#fee17a"/>
      <stop offset="1" stop-color="#fecd57"/>
    </linearGradient>
  </defs>
  <g id="Group_1000" data-name="Group 1000" transform="translate(-919.315 -917.002)">
    <path id="Path_837" data-name="Path 837" d="M949.378,917H923.227a3.913,3.913,0,0,0-3.912,3.912v17.6a3.91,3.91,0,0,0,3.912,3.91h26.154a3.913,3.913,0,0,0,3.913-3.91V920.921A3.919,3.919,0,0,0,949.378,917Z" fill="url(#linear-gradient)"/>
    <path id="Path_838" data-name="Path 838" d="M941.074,924.766h5.433c.43,0,.828.587.828,1.017s-.4,1.02-.828,1.02h-5.433c-.43,0-.828-.587-.828-1.02s.4-1.017.828-1.017Z" fill="#fff"/>
    <path id="Path_839" data-name="Path 839" d="M941.074,929.119h5.433c.43,0,.828.586.828,1.02s-.4,1.016-.828,1.016h-5.433c-.43,0-.828-.586-.828-1.016s.4-1.02.828-1.02Z" fill="#fff"/>
    <path id="Path_840" data-name="Path 840" d="M923.342,936.69a.782.782,0,0,1-.621-.915,6.984,6.984,0,0,1,4.954-5.378,4.1,4.1,0,1,1,3.836,0,6.969,6.969,0,0,1,4.955,5.4.779.779,0,0,1-.622.911h0a.73.73,0,0,1-.147.013Z" fill="#fff"/>
    <path id="Path_841" data-name="Path 841" d="M949.116,935.514h-8.042c-.43,0-.828-.586-.828-1.017s.4-1.016.828-1.016h8.036c.43,0,.828.586.828,1.016s-.4,1.017-.828,1.017Z" fill="#fff"/>
    <path id="Path_842" data-name="Path 842" d="M949.116,935.514" fill="#fff"/>
  </g>
</svg>
