<?xml version="1.0" encoding="utf-8"?>
<!-- Generator: Adobe Illustrator 24.1.1, SVG Export Plug-In . SVG Version: 6.00 Build 0)  -->
<svg version="1.1" id="圖層_1" xmlns="http://www.w3.org/2000/svg" xmlns:xlink="http://www.w3.org/1999/xlink" x="0px" y="0px"
	 viewBox="0 0 25 26" style="enable-background:new 0 0 25 26;" xml:space="preserve">
<style type="text/css">
	.st0{fill:#9FA4AB;}
	.st1{fill:url(#SVGID_1_);}
</style>
<g>
	<path id="Path_746" class="st0" d="M12.6,20.2c1.4,0,2.6-0.9,3-2.2c0-0.1,0-0.2-0.1-0.2c-0.1,0-0.2,0-0.2,0.1c0,0-0.5,0.8-2.3,1
		c-0.3,0-0.5,0.1-0.8,0.1c-0.7,0-1.3-0.1-1.9-0.5c-0.1-0.1-0.2,0-0.3,0c0,0.1-0.1,0.1,0,0.2C10.5,19.7,11.5,20.2,12.6,20.2
		L12.6,20.2z M20.8,9.9c-1.7-4.7-6.9-7.1-11.6-5.4C6.7,5.4,4.8,7.3,3.9,9.8C3.8,9.7,3.7,9.7,3.6,9.6c0.8-4.8,5.3-8,10.1-7.2
		C17.4,3,20.3,5.9,21,9.5C20.9,9.6,20.8,9.8,20.8,9.9L20.8,9.9L20.8,9.9z M22.6,8.7L22.6,8.7c-1.3-5.6-6.9-9.2-12.5-8
		C5.9,1.7,2.8,5,2,9.1c-0.9,0.2-1.6,1-1.6,1.9V15c0,1.1,0.9,2,2,2c0,0,0,0,0,0l0,0c0.6,0,1.1-0.3,1.5-0.7c0.9,2.3,2.6,4.1,4.9,5.1
		c0-0.1,0.1-0.1,0.1-0.2c0,0,0.1-0.1,0.1-0.1c0,0,0.1,0,0.1,0C7.5,19.8,6.6,18,6.2,16c-0.1-1.2,0.6-2.3,1.8-2.6
		c1.7-0.3,3.4-0.7,5.1-1c1-0.2,1.9-0.8,2.3-1.8c0.2-0.4,0.3-0.9,0.3-1.4c0-0.1,0.1-0.2,0.2-0.2c0.1,0,0.1,0,0.1,0.1l0,0
		c1.2,1.6,1.9,3.4,2.2,5.4c0.2,2.6,0.1,4.4-1.9,6.2l0,0c0,0,0,0.1,0,0.1c0,0.1,0,0.1,0.1,0.1c0,0,0,0,0.1,0l0,0c0,0,0,0,0,0
		c0,0,0.1,0,0.1,0c2-1.1,3.6-3,4.3-5.2c0.3,0.4,0.7,0.7,1.3,0.8c-0.8,3.8-4.2,6.2-8.5,6.6c-0.3-0.7-0.9-1.1-1.6-1.1
		c-0.9,0-1.7,0.8-1.7,1.7c0,0.9,0.8,1.7,1.7,1.7c0.7,0,1.4-0.5,1.6-1.2c4.9-0.4,8.8-3.3,9.6-7.8c0.7-0.3,1.2-1,1.2-1.8v-3.9
		C24.6,9.6,23.7,8.7,22.6,8.7L22.6,8.7z"/>
	<linearGradient id="SVGID_1_" gradientUnits="userSpaceOnUse" x1="3.8142" y1="11.0444" x2="24.6004" y2="11.0444">
		<stop  offset="0" style="stop-color:#C2C9D1"/>
		<stop  offset="1" style="stop-color:#9FA4AB"/>
	</linearGradient>
	<path class="st1" d="M23.4,16.5c0.7-0.3,1.2-1,1.2-1.8v-3.9c0-1.1-0.9-2-2-2h0h0c-1.2-5.6-6.8-9.2-12.5-8C7.5,1.3,5.3,2.8,3.8,4.9
		l1.2,1.2c1.9-2.7,5.2-4.3,8.7-3.7C17.4,3,20.3,5.9,21,9.5c-0.1,0.1-0.1,0.2-0.2,0.3l0,0c-1.7-4.7-6.9-7.1-11.6-5.4
		C7.9,5,6.7,5.8,5.7,6.8l5.9,5.9c0.5-0.1,1-0.2,1.5-0.3c1-0.2,1.9-0.8,2.3-1.8c0.2-0.4,0.3-0.9,0.3-1.4c0-0.1,0.1-0.2,0.2-0.2
		c0.1,0,0.1,0,0.1,0.1l0,0c1.2,1.6,1.9,3.4,2.2,5.4c0.1,1.7,0.1,3.1-0.5,4.4l0.7,0.7c1.1-1,1.9-2.3,2.4-3.8c0.3,0.4,0.7,0.7,1.3,0.8
		c-0.4,1.7-1.2,3.1-2.5,4.2l0.8,0.8C22,20.3,23,18.6,23.4,16.5z"/>
</g>
</svg>
