<?xml version="1.0" encoding="utf-8"?>
<!-- Generator: Adobe Illustrator 24.1.1, SVG Export Plug-In . SVG Version: 6.00 Build 0)  -->
<svg version="1.1" id="圖層_1" xmlns="http://www.w3.org/2000/svg" xmlns:xlink="http://www.w3.org/1999/xlink" x="0px" y="0px"
	 viewBox="0 0 32 32" style="enable-background:new 0 0 32 32;" xml:space="preserve">
<style type="text/css">
	.st0{fill:#64A621;}
	.st1{fill:#5D9E1F;}
	.st2{fill:#7DB523;}
	.st3{fill:#95C426;}
	.st4{fill:#FFFFFF;}
	.st5{opacity:0.2;}
	.st6{fill:#FDE7CD;}
	.st7{fill:#A08051;}
	.st8{fill:#5AA4CF;}
	.st9{fill:#76BAF2;}
</style>
<g>
	<rect x="2.6" y="8.3" class="st0" width="13.7" height="14.1"/>
</g>
<g>
	<rect x="16.3" y="9.5" class="st1" width="12.5" height="12.8"/>
</g>
<g>
	<g>
		<rect x="14" y="6" class="st2" width="13.7" height="14.1"/>
	</g>
	<g>
		<rect x="0.3" y="6" class="st3" width="13.7" height="14.1"/>
	</g>
	<g>
		<path class="st4" d="M26.7,19.2H1.4V7h25.3C26.7,7,26.7,19.2,26.7,19.2z M2.1,18.4h23.8V7.7H2.1V18.4z"/>
	</g>
	<g>
		<path class="st4" d="M15.3,11.7c-0.4-0.3-0.7-0.5-1-0.5c-0.4,0-0.6,0.1-0.6,0.5c0,0.8,2.5,0.8,2.5,2.6c0,1-0.5,1.7-1.5,2v1h-1.1
			v-1c-0.6-0.1-1.3-0.3-1.8-0.8l0.7-1.1c0.5,0.4,0.9,0.6,1.4,0.6s0.7-0.2,0.7-0.6c0-0.8-2.5-0.9-2.5-2.6c0-1,0.6-1.7,1.5-1.9v-1h1.1
			v1c0.6,0.1,1.1,0.4,1.5,0.8L15.3,11.7z"/>
	</g>
</g>
<g class="st5">
	<path d="M25.7,15.7c-0.9-0.5-1.9-0.7-3-0.7c-1.6,0-3.3,0.6-4.5,1.8c-1.2,1.2-1.8,2.7-1.8,4.5c0,0.4,0,0.7,0.1,1.1h9.2
		C25.7,22.4,25.7,15.7,25.7,15.7z"/>
</g>
<g>
	<g>
		<path class="st6" d="M24.1,28.5c-3.6,0-6.6-2.9-6.6-6.6c0-3.6,2.9-6.6,6.6-6.6c3.6,0,6.6,2.9,6.6,6.6S27.8,28.5,24.1,28.5z"/>
	</g>
	<g>
		<path class="st7" d="M24.1,15.7c3.4,0,6.2,2.8,6.2,6.2s-2.8,6.2-6.2,6.2s-6.2-2.8-6.2-6.2C17.9,18.5,20.7,15.7,24.1,15.7
			 M24.1,15.1c-1.8,0-3.6,0.7-4.9,2s-2,3-2,4.9s0.7,3.6,2,4.9s3,2,4.9,2c1.8,0,3.6-0.7,4.9-2s2-3,2-4.9s-0.7-3.6-2-4.9
			S26,15.1,24.1,15.1L24.1,15.1z"/>
	</g>
</g>
<g>
	<g>
		<polygon class="st8" points="26.6,25.7 26.6,21.7 28.3,21.7 24.1,17.2 24.1,25.7 		"/>
	</g>
	<g>
		<polygon class="st9" points="21.7,21.7 21.7,25.7 24.1,25.7 24.1,17.2 20,21.7 		"/>
	</g>
</g>
</svg>
