<?xml version="1.0" encoding="utf-8"?>
<!-- Generator: Adobe Illustrator 24.2.0, SVG Export Plug-In . SVG Version: 6.00 Build 0)  -->
<svg version="1.1" id="圖層_1" xmlns="http://www.w3.org/2000/svg" xmlns:xlink="http://www.w3.org/1999/xlink" x="0px" y="0px"
	 viewBox="0 0 36 36" style="enable-background:new 0 0 36 36;" xml:space="preserve">
<style type="text/css">
	.st0{clip-path:url(#SVGID_2_);fill:#A09D95;}
	.st1{fill:#FFC55F;}
	.st2{fill:#3C80EF;}
	.st3{fill:none;}
</style>
<g>
	<defs>
		<rect id="SVGID_1_" x="2.6" y="1.9" width="31" height="32.3"/>
	</defs>
	<clipPath id="SVGID_2_">
		<use xlink:href="#SVGID_1_"  style="overflow:visible;"/>
	</clipPath>
	<path class="st0" d="M23.6,13c2.4,0,4.6,1.6,5.3,3.9c0.7,2.3-0.1,4.9-2.1,6.2c3.8,0.6,6.6,2.2,6.7,4.5l0,0.2v3.7
		c0,1.3-1,2.4-2.3,2.5l-0.2,0H16.2c-1.3,0-2.4-1-2.5-2.3l0-0.2v-3.7c0-2.4,2.8-4.1,6.7-4.7c-2-1.4-2.9-3.9-2.1-6.2
		C19,14.6,21.2,13,23.6,13L23.6,13z M27.3,1.9c1.3,0,2.4,1,2.5,2.3l0,0.2v6.2c0,0.7-0.5,1.2-1.2,1.2c-0.7,0-1.2-0.4-1.3-1.1l0-0.1
		V4.4H5v27.3h5c0.7,0,1.2,0.5,1.2,1.2c0,0.7-0.4,1.2-1.1,1.3l-0.1,0H5c-1.3,0-2.4-1-2.5-2.3l0-0.2V4.4c0-1.3,1-2.4,2.3-2.5l0.2,0
		H27.3z M23.6,25.4c-2.2,0-4.2,0.4-5.6,1c-1.1,0.5-1.7,1-1.8,1.4l0,0.1v3.7H31v-3.7c0-0.4-0.6-1-1.8-1.5
		C27.8,25.8,25.8,25.4,23.6,25.4L23.6,25.4z M23.6,15.5c-1.7,0-3.1,1.4-3.1,3.1c0,1.7,1.4,3.1,3.1,3.1c1.7,0,3.1-1.4,3.1-3.1
		C26.7,16.9,25.3,15.5,23.6,15.5L23.6,15.5z M13.7,11.8c0.7,0,1.2,0.6,1.2,1.2c0,0.7-0.6,1.2-1.2,1.2h-5c-0.7,0-1.2-0.6-1.2-1.2
		c0-0.7,0.6-1.2,1.2-1.2H13.7z M16.2,6.8c0.7,0,1.2,0.6,1.2,1.2c0,0.7-0.6,1.2-1.2,1.2H8.7c-0.7,0-1.2-0.6-1.2-1.2
		c0-0.7,0.6-1.2,1.2-1.2H16.2z M16.2,6.8"/>
</g>
<path class="st1" d="M33.5,27.7c-0.2-2.3-2.9-3.9-6.7-4.5c2-1.4,2.9-3.9,2.1-6.2C28.2,14.6,26,13,23.6,13c-2.4,0-4.6,1.6-5.3,3.9
	c-0.7,2.3,0.1,4.9,2.1,6.2c-3.9,0.6-6.7,2.3-6.7,4.7v3.7l0,0.2c0.1,1.3,1.2,2.3,2.5,2.3H31l0.2,0c1.3-0.1,2.3-1.2,2.3-2.5v-3.7
	L33.5,27.7z M23.6,15.5c1.7,0,3.1,1.4,3.1,3.1c0,1.7-1.4,3.1-3.1,3.1c-1.7,0-3.1-1.4-3.1-3.1C20.5,16.9,21.9,15.5,23.6,15.5z
	 M31,31.6H16.2v-3.7l0-0.1c0.1-0.4,0.7-0.9,1.8-1.4c1.5-0.6,3.5-1,5.6-1c2.2,0,4.2,0.4,5.6,1c1.2,0.5,1.8,1.1,1.8,1.5V31.6z"/>
<path class="st2" d="M-28.7,6.8"/>
<rect x="-42.4" y="1.9" class="st3" width="31" height="32.3"/>
</svg>
