<?xml version="1.0" encoding="utf-8"?>
<!-- Generator: Adobe Illustrator 24.1.1, SVG Export Plug-In . SVG Version: 6.00 Build 0)  -->
<svg version="1.1" id="圖層_1" xmlns="http://www.w3.org/2000/svg" xmlns:xlink="http://www.w3.org/1999/xlink" x="0px" y="0px"
	 viewBox="0 0 36 36" style="enable-background:new 0 0 36 36;" xml:space="preserve">
<style type="text/css">
	.st0{clip-path:url(#SVGID_2_);fill:#9F9B93;}
	.st1{fill:#FFC55F;}
</style>
<g>
	<g>
		<g>
			<defs>
				<rect id="SVGID_1_" x="0.5" y="1.9" width="35" height="32.1"/>
			</defs>
			<clipPath id="SVGID_2_">
				<use xlink:href="#SVGID_1_"  style="overflow:visible;"/>
			</clipPath>
			<path class="st0" d="M35.1,22l-2.6-2.8c-0.4-0.4-1.1-0.6-1.6-0.3l-3,1.3c-0.7,0.3-1,1.1-0.7,1.9c0.3,0.7,1.1,1,1.9,0.7l0.6-0.3
				c-2,5.1-6.6,8.5-11.8,8.5C12.5,31,7.6,27.3,6,21.9c-0.3-0.7-1-1.1-1.9-1c-0.7,0.3-1.1,1-1,1.9C5.2,29.5,11.2,34,17.8,34
				s12.3-4.3,14.5-10.6l0.4,0.4c0.3,0.3,0.7,0.4,1,0.4s0.7-0.2,1-0.4C35.7,23.5,35.7,22.6,35.1,22L35.1,22z M4.4,17.8
				c0.3,0,0.4,0,0.7-0.2l3.1-1.7c0.7-0.4,1-1.3,0.6-2.1c-0.4-0.7-1.3-1-2.1-0.6l-0.6,0.4C7.9,8.5,12.6,5,17.8,5
				c5.7,0,10.8,4.1,12.1,10c0.2,0.7,1,1.3,1.8,1c0.7-0.2,1.3-1,1-1.8C31.4,7.1,25.1,2,18.1,2C11.3,2,5.5,6.5,3.4,13.1L3,12.6
				c-0.6-0.6-1.5-0.6-2.1,0s-0.6,1.5,0,2.1l2.6,2.8C3.6,17.6,4,17.8,4.4,17.8L4.4,17.8z"/>
		</g>
	</g>
	<path class="st1" d="M24.4,21.9c0.6-2.8-1.6-5.3-4.4-5.3h-3.9c-0.9,0-1.5-0.6-1.5-1.5s0.7-1.5,1.5-1.5h6.3c0.9,0,1.5-0.6,1.5-1.5
		s-0.6-1.5-1.5-1.5h-3V9.2c0-0.7-0.6-1.5-1.5-1.5s-1.5,0.6-1.5,1.5v1.5h-0.3c-2.2,0-4.3,1.5-4.5,3.5C11,17,13.2,19.5,16,19.5h4
		c0.9,0,1.5,0.6,1.5,1.5s-0.7,1.5-1.5,1.5h-6.4c-0.9,0-1.5,0.6-1.5,1.5s0.6,1.5,1.5,1.5h3V27c0,0.7,0.6,1.5,1.5,1.5s1.5-0.6,1.5-1.5
		v-1.5H20C22,25.4,24.1,24,24.4,21.9L24.4,21.9z"/>
</g>
</svg>
