<?xml version="1.0" encoding="utf-8"?>
<!-- Generator: Adobe Illustrator 24.1.1, SVG Export Plug-In . SVG Version: 6.00 Build 0)  -->
<svg version="1.1" id="圖層_1" xmlns="http://www.w3.org/2000/svg" xmlns:xlink="http://www.w3.org/1999/xlink" x="0px" y="0px"
	 viewBox="0 0 36 36" style="enable-background:new 0 0 36 36;" xml:space="preserve">
<style type="text/css">
	.st0{fill:none;}
	.st1{fill:#9F9B93;}
	.st2{fill:#FFC55F;}
</style>
<path class="st0" d="M14.4,27.5c7.2,0,13.1-5.9,13.1-13.1S21.6,1.3,14.4,1.3C7.2,1.3,1.3,7.2,1.3,14.4S7.2,27.5,14.4,27.5z
	 M14.4,2.5c6.6,0,11.9,5.3,11.9,11.9S21,26.3,14.4,26.3C7.9,26.3,2.5,21,2.5,14.4S7.9,2.5,14.4,2.5z"/>
<path class="st0" d="M0.1,0.1v14.2C0.2,6.5,6.6,0.1,14.4,0.1c7.9,0,14.3,6.4,14.3,14.3s-6.4,14.3-14.3,14.3S0.2,22.3,0.1,14.5v21.4
	h35.8V0.1H0.1z M27.1,23.7c0.2-0.2,0.6-0.2,0.8,0l1.3,1.3c0.2,0.2,0.2,0.6,0,0.8c-0.1,0.1-0.3,0.2-0.4,0.2c-0.2,0-0.3-0.1-0.4-0.2
	l-1.3-1.3C26.9,24.3,26.9,24,27.1,23.7z M35,35c-0.6,0.6-1.3,0.9-2.1,0.9s-1.5-0.3-2.1-0.9l-7.1-7.1c-0.2-0.2-0.2-0.6,0-0.8
	c0.2-0.2,0.6-0.2,0.8,0l7.1,7.1c0.7,0.7,1.8,0.7,2.5,0c0.3-0.3,0.5-0.8,0.5-1.3s-0.2-0.9-0.5-1.3l-3.8-3.8L29,29.1
	c-0.2,0.2-0.6,0.2-0.8,0c-0.2-0.2-0.2-0.6,0-0.8l1.7-1.7c0.1-0.1,0.3-0.2,0.4-0.2l0,0c0.2,0,0.3,0.1,0.4,0.2l4.2,4.2
	c0.6,0.6,0.9,1.3,0.9,2.1C35.9,33.7,35.6,34.4,35,35z"/>
<path class="st1" d="M28.4,25.8c0.1,0.1,0.3,0.2,0.4,0.2c0.2,0,0.3-0.1,0.4-0.2c0.2-0.2,0.2-0.6,0-0.8l-1.3-1.3
	c-0.2-0.2-0.6-0.2-0.8,0c-0.2,0.2-0.2,0.6,0,0.8L28.4,25.8z"/>
<path class="st1" d="M30.8,26.6c-0.1-0.1-0.3-0.2-0.4-0.2l0,0c-0.2,0-0.3,0.1-0.4,0.2l-1.7,1.7c-0.2,0.2-0.2,0.6,0,0.8
	c0.2,0.2,0.6,0.2,0.8,0l1.3-1.3l3.8,3.8c0.3,0.3,0.5,0.8,0.5,1.3s-0.2,0.9-0.5,1.3c-0.7,0.7-1.8,0.7-2.5,0l-7.1-7.1
	c-0.2-0.2-0.6-0.2-0.8,0c-0.2,0.2-0.2,0.6,0,0.8l7.1,7.1c0.6,0.6,1.3,0.9,2.1,0.9s1.5-0.3,2.1-0.9c0.6-0.6,0.9-1.3,0.9-2.1
	s-0.3-1.5-0.9-2.1L30.8,26.6z"/>
<path class="st1" d="M14.4,28.7c7.9,0,14.3-6.4,14.3-14.3S22.3,0.1,14.4,0.1C6.6,0.1,0.2,6.5,0.1,14.3v0.2
	C0.2,22.4,6.6,28.7,14.4,28.7z M14.4,1.3c7.2,0,13.1,5.9,13.1,13.1s-5.9,13.1-13.1,13.1S1.3,21.6,1.3,14.4C1.3,7.2,7.2,1.3,14.4,1.3
	z"/>
<path class="st2" d="M14.4,2.5C7.9,2.5,2.5,7.8,2.5,14.4s5.3,11.9,11.9,11.9S26.3,21,26.3,14.4S21,2.5,14.4,2.5z M13.8,16.8
	c-0.3,0-0.6-0.3-0.6-0.6s0.3-0.6,0.6-0.6H21c0.3,0,0.6,0.3,0.6,0.6c0,0.3-0.3,0.6-0.6,0.6H13.8z M19.2,19.8c0,0.3-0.3,0.6-0.6,0.6
	h-2.4c-0.3,0-0.6-0.3-0.6-0.6s0.3-0.6,0.6-0.6h2.4C18.9,19.2,19.2,19.4,19.2,19.8z M7.9,13.2c-0.3,0-0.6-0.3-0.6-0.6S7.5,12,7.9,12
	h8.3c0.3,0,0.6,0.3,0.6,0.6s-0.3,0.6-0.6,0.6C16.2,13.2,7.9,13.2,7.9,13.2z M17.4,9.6h-7.2C9.9,9.6,9.6,9.3,9.6,9s0.3-0.6,0.6-0.6
	h7.2C17.7,8.4,18,8.7,18,9C18,9.4,17.7,9.6,17.4,9.6z M7.9,15.6h3.6c0.3,0,0.6,0.3,0.6,0.6c0,0.3-0.3,0.6-0.6,0.6H7.9
	c-0.3,0-0.6-0.3-0.6-0.6S7.5,15.6,7.9,15.6z M13.8,20.4H9.1c-0.3,0-0.6-0.3-0.6-0.6s0.3-0.6,0.6-0.6h4.8c0.3,0,0.6,0.3,0.6,0.6
	S14.2,20.4,13.8,20.4z M21,13.2h-2.4c-0.3,0-0.6-0.3-0.6-0.6s0.3-0.6,0.6-0.6H21c0.3,0,0.6,0.3,0.6,0.6C21.6,13,21.3,13.2,21,13.2z"
	/>
</svg>
