<?xml version="1.0" encoding="utf-8"?>
<!-- Generator: Adobe Illustrator 24.1.1, SVG Export Plug-In . SVG Version: 6.00 Build 0)  -->
<svg version="1.1" id="圖層_1" xmlns="http://www.w3.org/2000/svg" xmlns:xlink="http://www.w3.org/1999/xlink" x="0px" y="0px"
	 viewBox="0 0 36 36" style="enable-background:new 0 0 36 36;" xml:space="preserve">
<style type="text/css">
	.st0{fill:none;}
	.st1{fill:#9F9B93;}
	.st2{fill:#FFC55F;}
</style>
<path class="st0" d="M28.8,6.5C25.9,3.6,22,1.9,18,1.9S10.1,3.5,7.2,6.5c-3,3.1-4.6,7.1-4.6,11.5c0,4.3,1.6,8.4,4.6,11.5
	c2.9,3,6.7,4.6,10.8,4.6c4,0,7.9-1.6,10.8-4.6c3-3.1,4.6-7.1,4.6-11.5C33.4,13.7,31.7,9.6,28.8,6.5z M18,30.9
	c-7,0-12.6-5.8-12.6-12.9C5.4,10.9,11,5.1,18,5.1S30.6,10.9,30.6,18l0,0l0,0C30.6,25.1,25,30.9,18,30.9z"/>
<path class="st1" d="M30.7,5.5c-1.6-1.7-3.5-3-5.6-3.9c-2.2-1-4.6-1.5-7-1.5s-4.8,0.5-7,1.5C9,2.5,7.1,3.8,5.5,5.5
	C2,8.8,0.2,13.3,0.2,18S2,27.2,5.3,30.5c1.6,1.7,3.5,3,5.6,3.9c2.2,1,4.6,1.5,7,1.5c2.5,0,4.8-0.5,7-1.5c2.1-0.9,4-2.2,5.6-3.9
	c3.3-3.4,5.1-7.8,5.1-12.5C35.8,13.3,34,8.8,30.7,5.5z M28.8,29.5c-2.9,3-6.7,4.6-10.8,4.6c-4,0-7.9-1.6-10.8-4.6
	c-3-3.1-4.6-7.1-4.6-11.5c0-4.3,1.6-8.4,4.6-11.5c2.9-3,6.7-4.6,10.8-4.6c4,0,7.9,1.6,10.8,4.6c3,3.1,4.6,7.1,4.6,11.5
	C33.4,22.3,31.7,26.4,28.8,29.5z"/>
<path class="st2" d="M30.6,18L30.6,18C30.6,10.9,25,5.1,18,5.1C25,5.1,30.6,10.9,30.6,18z"/>
<path class="st2" d="M30.6,18C30.6,10.9,25,5.1,18,5.1S5.4,10.9,5.4,18S11,30.9,18,30.9S30.6,25.1,30.6,18L30.6,18z M12.8,13.3H18
	h7.5c0.5,0,0.9,0.3,0.9,0.7s-0.4,0.7-0.9,0.7H18h-5.2c-0.5,0-0.9-0.3-0.9-0.7C11.9,13.6,12.4,13.3,12.8,13.3z M12.8,16H18h2.1
	c0.5,0,0.9,0.3,0.9,0.7c0,0.4-0.4,0.7-0.9,0.7H18h-5.2c-0.5,0-0.9-0.3-0.9-0.7C11.9,16.3,12.4,16,12.8,16z M12.8,18.7H18h7.5
	c0.5,0,0.9,0.3,0.9,0.7c0,0.4-0.4,0.7-0.9,0.7H18h-5.2c-0.5,0-0.9-0.3-0.9-0.7C11.9,19,12.4,18.7,12.8,18.7z M12.8,22.7
	c-0.5,0-0.9-0.3-0.9-0.7c0-0.4,0.4-0.7,0.9-0.7H18h2.1c0.5,0,0.9,0.3,0.9,0.7c0,0.4-0.4,0.7-0.9,0.7H18H12.8z"/>
</svg>
