<?xml version="1.0" encoding="utf-8"?>
<!-- Generator: Adobe Illustrator 24.1.1, SVG Export Plug-In . SVG Version: 6.00 Build 0)  -->
<svg version="1.1" id="圖層_1" xmlns="http://www.w3.org/2000/svg" xmlns:xlink="http://www.w3.org/1999/xlink" x="0px" y="0px"
	 viewBox="0 0 36 36" style="enable-background:new 0 0 36 36;" xml:space="preserve">
<style type="text/css">
	.st0{fill:#9F9B93;}
	.st1{fill:#FFC55F;}
	.st2{clip-path:url(#SVGID_2_);fill:#FFC55F;}
	.st3{clip-path:url(#SVGID_4_);fill:#FFC55F;}
	.st4{clip-path:url(#SVGID_6_);fill:#9F9B93;}
</style>
<g>
	<path class="st0" d="M25.1,18.2h-7.7c-0.5,0-0.9,0.4-0.9,0.9v5.6c0,0.5,0.4,0.9,0.9,0.9h7.7c0.5,0,0.9-0.4,0.9-0.9v-5.6
		C26,18.6,25.6,18.2,25.1,18.2L25.1,18.2z M20.1,22.9c-0.6,0-1-0.5-1-1c0-0.6,0.5-1,1-1c0.6,0,1,0.5,1,1
		C21.2,22.5,20.7,22.9,20.1,22.9L20.1,22.9z"/>
	<path class="st1" d="M17.4,10.8H3.8C3.3,10.8,3,10.4,3,9.9S3.4,9,3.9,9h13.6c0.5,0,0.9,0.4,0.9,0.9C18.3,10.4,17.9,10.8,17.4,10.8
		L17.4,10.8z"/>
	<g>
		<g>
			<defs>
				<rect id="SVGID_1_" x="1" y="2.3" width="34" height="29.7"/>
			</defs>
			<clipPath id="SVGID_2_">
				<use xlink:href="#SVGID_1_"  style="overflow:visible;"/>
			</clipPath>
			<path class="st2" d="M26,32c-0.5,0-0.9-0.4-0.9-0.9v-3.6c0-0.5,0.4-0.9,0.9-0.9s0.9,0.4,0.9,0.9v3.6C26.8,31.6,26.5,32,26,32
				L26,32z"/>
		</g>
		<g>
			<defs>
				<rect id="SVGID_3_" x="1" y="2.3" width="34" height="29.7"/>
			</defs>
			<clipPath id="SVGID_4_">
				<use xlink:href="#SVGID_3_"  style="overflow:visible;"/>
			</clipPath>
			<path class="st3" d="M34.8,8.9l-6-6.3c-0.2-0.2-0.4-0.3-0.6-0.3s-0.4,0.1-0.6,0.2l-7.1,7c-0.2,0.2-0.3,0.6-0.2,0.9
				c0.1,0.3,0.4,0.5,0.8,0.5h3.6v5.3c0,0.5,0.4,0.8,0.8,0.8h2.1c0.2,0,0.4-0.1,0.6-0.3l6.5-6.8C35.1,9.7,35.1,9.2,34.8,8.9z
				 M28.8,12.5v1h-0.6v-1c-0.6,0-1.2-0.2-1.5-0.4l0.2-0.7c0.4,0.2,0.9,0.4,1.4,0.4c0.7,0,1.2-0.4,1.2-1c0-0.5-0.4-0.9-1.1-1.2
				c-1-0.4-1.6-0.8-1.6-1.7c0-0.8,0.6-1.4,1.5-1.6v-1h0.6v1c0.6,0,1,0.2,1.3,0.3L30,7.3C29.8,7.2,29.4,7,28.8,7c-0.8,0-1,0.5-1,0.8
				c0,0.5,0.4,0.8,1.2,1.1c1,0.4,1.5,0.9,1.5,1.8C30.3,11.6,29.8,12.4,28.8,12.5z"/>
		</g>
		<g>
			<defs>
				<rect id="SVGID_5_" x="1" y="2.3" width="34" height="29.7"/>
			</defs>
			<clipPath id="SVGID_6_">
				<use xlink:href="#SVGID_5_"  style="overflow:visible;"/>
			</clipPath>
			<path class="st4" d="M23.8,17.6v-4.9c0-0.5-0.4-0.9-0.9-0.9h-21c-0.5,0-0.9,0.4-0.9,0.9v18.4C1,31.6,1.4,32,1.9,32H23
				c0.5,0,0.9-0.4,0.9-0.9v-4.9H21v0.1c0,0.1-0.1,0.3-0.3,0.3c-0.1,0-0.3-0.1-0.3-0.3v-0.1h-3.6c-0.6,0-1-0.4-1-1v-6.6
				c0-0.6,0.4-1,1-1h3.6v-0.1c0-0.1,0.1-0.3,0.3-0.3c0.1,0,0.3,0.1,0.3,0.3v0.1H23.8z M3.9,17.5c0-0.1,0.1-0.3,0.3-0.3
				c0.1,0,0.3,0.1,0.3,0.3v1.8c0,0.1-0.1,0.3-0.3,0.3c-0.1,0-0.3-0.1-0.3-0.3C3.9,19.3,3.9,17.5,3.9,17.5z M3.9,21
				c0-0.1,0.1-0.3,0.3-0.3c0.1,0,0.3,0.1,0.3,0.3v1.8c0,0.1-0.1,0.3-0.3,0.3c-0.1,0-0.3-0.1-0.3-0.3C3.9,22.8,3.9,21,3.9,21z
				 M3.9,24.6c0-0.1,0.1-0.3,0.3-0.3c0.1,0,0.3,0.1,0.3,0.3v1.8c0,0.1-0.1,0.3-0.3,0.3c-0.1,0-0.3-0.1-0.3-0.3
				C3.9,26.4,3.9,24.6,3.9,24.6z M5.1,29.4h-1c-0.1,0-0.3-0.1-0.3-0.3v-1c0-0.1,0.1-0.3,0.3-0.3c0.1,0,0.3,0.1,0.3,0.3v0.7h0.7
				c0.1,0,0.3,0.1,0.3,0.3S5.3,29.4,5.1,29.4L5.1,29.4z M5.1,15H4.4v0.7c0,0.1-0.1,0.3-0.3,0.3c-0.1,0-0.3-0.1-0.3-0.3v-1
				c0-0.1,0.1-0.3,0.3-0.3h1c0.1,0,0.3,0.1,0.3,0.3S5.3,15,5.1,15L5.1,15z M9.3,29.4H7.2c-0.1,0-0.3-0.1-0.3-0.3s0.1-0.3,0.3-0.3
				h2.1c0.1,0,0.3,0.1,0.3,0.3S9.4,29.4,9.3,29.4L9.3,29.4z M9.3,15H7.2C7.1,15,7,14.9,7,14.7c0-0.1,0.1-0.3,0.3-0.3h2.1
				c0.1,0,0.3,0.1,0.3,0.3C9.5,14.9,9.4,15,9.3,15L9.3,15z M13.4,29.4h-2.1c-0.1,0-0.3-0.1-0.3-0.3s0.1-0.3,0.3-0.3h2.1
				c0.1,0,0.3,0.1,0.3,0.3S13.6,29.4,13.4,29.4L13.4,29.4z M13.4,15h-2.1c-0.1,0-0.3-0.1-0.3-0.3c0-0.1,0.1-0.3,0.3-0.3h2.1
				c0.1,0,0.3,0.1,0.3,0.3S13.6,15,13.4,15L13.4,15z M19.6,28.9h0.7v-0.7c0-0.1,0.1-0.3,0.3-0.3c0.1,0,0.3,0.1,0.3,0.3v1
				c0,0.1-0.1,0.3-0.3,0.3h-1c-0.1,0-0.3-0.1-0.3-0.3S19.5,28.9,19.6,28.9L19.6,28.9z M17.6,28.9c0.1,0,0.3,0.1,0.3,0.3
				s-0.1,0.3-0.3,0.3h-2.1c-0.1,0-0.3-0.1-0.3-0.3s0.1-0.3,0.3-0.3H17.6z M17.6,15h-2.1c-0.1,0-0.3-0.1-0.3-0.3
				c0-0.1,0.1-0.3,0.3-0.3h2.1c0.1,0,0.3,0.1,0.3,0.3C17.8,14.9,17.7,15,17.6,15L17.6,15z M20.6,16c-0.1,0-0.3-0.1-0.3-0.3V15h-0.7
				c-0.1,0-0.3-0.1-0.3-0.3c0-0.1,0.1-0.3,0.3-0.3h1c0.1,0,0.3,0.1,0.3,0.3v1C20.9,15.9,20.8,16,20.6,16L20.6,16z"/>
		</g>
	</g>
</g>
</svg>
