<?xml version="1.0" encoding="utf-8"?>
<!-- Generator: Adobe Illustrator 24.1.1, SVG Export Plug-In . SVG Version: 6.00 Build 0)  -->
<svg version="1.1" id="圖層_1" xmlns="http://www.w3.org/2000/svg" xmlns:xlink="http://www.w3.org/1999/xlink" x="0px" y="0px"
	 viewBox="0 0 36 36" style="enable-background:new 0 0 36 36;" xml:space="preserve">
<style type="text/css">
	.st0{clip-path:url(#SVGID_2_);fill:#9F9B93;}
	.st1{fill:#FFC55F;}
</style>
<g>
	<g>
		<g>
			<defs>
				<rect id="SVGID_1_" x="0.9" y="0.8" width="34.3" height="34.4"/>
			</defs>
			<clipPath id="SVGID_2_">
				<use xlink:href="#SVGID_1_"  style="overflow:visible;"/>
			</clipPath>
			<path class="st0" d="M35.1,26.1c-0.1-0.2-0.3-0.3-0.4-0.2l-2.6,1V3.8c0-1.6-1.3-2.9-2.9-2.9H6.9C5.3,0.9,4,2.2,4,3.8v23.1l-2.6-1
				H1.3c-0.2,0-0.3,0.2-0.3,0.3v2.6c0,0.1,0.1,0.3,0.2,0.3l16.4,6c0.3,0.1,0.6,0.1,0.9,0l16.4-6c0.1-0.1,0.2-0.2,0.2-0.3L35.1,26.1
				C35.2,26.2,35.1,26.1,35.1,26.1L35.1,26.1z M18,31.9l-11-4v-24h22v24L18,31.9z"/>
		</g>
	</g>
	<path class="st1" d="M24.4,9.4h-2.3c-0.1,0-0.2,0.1-0.3,0.2l-3.6,7.2H18l-3.6-7.2c-0.1-0.1-0.2-0.2-0.3-0.2h-2.4
		c-0.1,0-0.1,0-0.2,0c-0.2,0.1-0.2,0.3-0.1,0.5l4.4,8.2h-2.4c-0.2,0-0.3,0.2-0.3,0.3v1.2c0,0.2,0.2,0.3,0.3,0.3h3.3v1.7h-3.3
		c-0.2,0-0.3,0.2-0.3,0.3v1.2c0,0.2,0.2,0.3,0.3,0.3h3.3v2.7c0,0.2,0.2,0.3,0.3,0.3h2.1c0.2,0,0.3-0.2,0.3-0.3v-2.7h3.3
		c0.2,0,0.3-0.2,0.3-0.3V22c0-0.2-0.2-0.3-0.3-0.3h-3.3V20h3.3c0.2,0,0.3-0.2,0.3-0.3v-1.2c0-0.2-0.2-0.3-0.3-0.3h-2.5l4.4-8.2
		c0-0.1,0-0.1,0-0.2C24.7,9.6,24.6,9.4,24.4,9.4L24.4,9.4z"/>
</g>
</svg>
