<?xml version="1.0" encoding="utf-8"?>
<!-- Generator: Adobe Illustrator 24.1.1, SVG Export Plug-In . SVG Version: 6.00 Build 0)  -->
<svg version="1.1" id="圖層_1" xmlns="http://www.w3.org/2000/svg" xmlns:xlink="http://www.w3.org/1999/xlink" x="0px" y="0px"
	 viewBox="0 0 32 32" style="enable-background:new 0 0 32 32;" xml:space="preserve">
<style type="text/css">
	.st0{fill-rule:evenodd;clip-rule:evenodd;fill:#92C93A;}
	.st1{fill-rule:evenodd;clip-rule:evenodd;fill:#F5826F;}
	.st2{fill:none;stroke:#000000;stroke-miterlimit:30.5594;}
</style>
<rect x="0.9" y="16.4" class="st0" width="30" height="2.9"/>
<path class="st1" d="M2.7,18.6v11h26.2v-11H2.7z M15.4,19.4h1.2V20c0.7,0.1,1.5,0.4,2.2,0.9l-0.9,1.3c-0.5-0.3-0.9-0.5-1.3-0.7v1.6
	c0.8,0.2,1.4,0.5,1.8,0.8s0.6,0.8,0.6,1.5c0,0.6-0.2,1.1-0.6,1.6c-0.4,0.4-1,0.7-1.7,0.7v0.8h-1.2v-0.8c-0.9-0.1-1.8-0.6-2.6-1.3
	l1-1.2c0.6,0.5,1.1,0.8,1.5,1v-1.6c-0.8-0.2-1.3-0.5-1.7-0.8s-0.5-0.8-0.5-1.4s0.2-1.1,0.6-1.5c0.4-0.4,0.9-0.7,1.6-0.7V19.4z
	 M15.4,21.5c-0.3,0.1-0.5,0.3-0.5,0.6c0,0.3,0.2,0.5,0.5,0.7V21.5z M16.5,24.8v1.4c0.4-0.1,0.6-0.3,0.6-0.7c0-0.2,0-0.3-0.1-0.4
	C16.9,25,16.8,24.9,16.5,24.8z"/>
<path class="st1" d="M12.3,10.6h7.1c1.2,0,2.1,0.9,2.1,2.1v4.5c0,1.2-0.9,2.1-2.1,2.1h-7.1c-1.2,0-2.1-0.9-2.1-2.1v-4.5
	C10.2,11.6,11.1,10.6,12.3,10.6L12.3,10.6z M19,6.7c0,1.7-1.4,3.1-3.1,3.1s-3.1-1.4-3.1-3.1s1.4-3.1,3.1-3.1S19,5,19,6.7z"/>
<path class="st2" d="M30.6,6.7c0,2.4-1.9,4.3-4.3,4.3S22,9.1,22,6.7l0,0c0-2.4,1.9-4.3,4.3-4.3S30.6,4.4,30.6,6.7L30.6,6.7z"/>
<path class="st1" d="M28.9,5.9v1.8h-5.2V5.9H28.9z"/>
</svg>
